<svg width="274" height="206" viewBox="0 0 274 206" fill="none" xmlns="http://www.w3.org/2000/svg">
<path d="M0.526367 14.3583C0.526367 6.71919 6.71906 0.526489 14.3581 0.526489H259.642C267.281 0.526489 273.473 6.71919 273.473 14.3583V105.187H0.526367V14.3583Z" fill="#E8373A"/>
<path d="M243.575 15.9786L242.673 15.9883C226.531 16.1563 228.038 26.5141 228.066 29.3109L258.456 28.9952C258.426 26.1983 259.716 15.8107 243.575 15.9786ZM235.453 25.0127L234.766 27.2004L234.035 25.0272L231.743 25.0515L233.583 23.6841L232.853 21.5109L234.721 22.8394L236.562 21.473L235.876 23.6607L237.745 24.9883L235.453 25.0127ZM243.856 24.9249L243.169 27.1126L242.438 24.9393L240.145 24.9636L241.986 23.5963L241.255 21.4239L243.124 22.7516L244.965 21.3852L244.279 23.5729L246.148 24.9014L243.856 24.9249ZM252.258 24.8379L251.572 27.0256L250.841 24.8524L248.548 24.8758L250.389 23.5094L249.658 21.3361L251.527 22.6647L253.368 21.2973L252.682 23.485L254.551 24.8136L252.258 24.8379Z" fill="white"/>
<path d="M263.462 40.1618L260.519 40.1921L260.541 42.3195C260.546 42.8582 260.114 43.3002 259.575 43.306C259.037 43.3109 258.595 42.8789 258.589 42.34L258.462 30.1607L228.043 30.477L228.21 46.5605L235.728 46.4827L235.666 40.5385L245.107 40.4407L245.169 46.4425L252.278 46.3689L252.187 37.6271C252.181 37.0883 252.614 36.6472 253.153 36.6414C253.692 36.6356 254.134 37.0686 254.14 37.6074L254.153 41.7015C254.18 44.2838 256.296 46.3556 258.878 46.3294C261.461 46.3024 263.533 44.187 263.506 41.6037L263.462 40.1618Z" fill="white"/>
<path d="M8.99016 110.906L7.72165 107.031H7.67561L6.4071 110.906H2.37109V110.952L5.63445 113.316L4.3545 117.213L4.3891 117.225L7.69877 114.826L11.0082 117.225L11.0428 117.213L9.76282 113.316L13.0262 110.952V110.906H8.99016Z" fill="#3C70A6"/>
<path d="M27.4833 110.906L26.2148 107.031H26.1688L24.9003 110.906H20.8643V110.952L24.1276 113.316L22.8477 117.213L22.8823 117.225L26.1919 114.826L29.5013 117.225L29.5359 117.213L28.256 113.316L31.5193 110.952V110.906H27.4833Z" fill="#3C70A6"/>
<path d="M45.9765 110.906L44.708 107.031H44.6619L43.3934 110.906H39.3574V110.952L42.6208 113.316L41.3408 117.213L41.3754 117.225L44.6851 114.826L47.9945 117.225L48.0291 117.213L46.7491 113.316L50.0125 110.952V110.906H45.9765Z" fill="#3C70A6"/>
<path d="M64.4697 110.906L63.2011 107.031H63.1551L61.8866 110.906H57.8506V110.952L61.1139 113.316L59.834 117.213L59.8686 117.225L63.1783 114.826L66.4877 117.225L66.5223 117.213L65.2423 113.316L68.5057 110.952V110.906H64.4697Z" fill="#3C70A6"/>
<path d="M82.9628 110.906L81.6943 107.031H81.6483L80.3798 110.906H76.3438V110.952L79.6071 113.316L78.3272 117.213L78.3618 117.225L81.6714 114.826L84.9808 117.225L85.0154 117.213L83.7355 113.316L86.9988 110.952V110.906H82.9628Z" fill="#3C70A6"/>
<path d="M101.456 110.906L100.187 107.031H100.141L98.8729 110.906H94.8369V110.952L98.1003 113.316L96.8203 117.213L96.8549 117.225L100.165 114.826L103.474 117.225L103.509 117.213L102.229 113.316L105.492 110.952V110.906H101.456Z" fill="#3C70A6"/>
<path d="M119.949 110.906L118.681 107.031H118.635L117.366 110.906H113.33V110.952L116.593 113.316L115.313 117.213L115.348 117.225L118.658 114.826L121.967 117.225L122.002 117.213L120.722 113.316L123.985 110.952V110.906H119.949Z" fill="#3C70A6"/>
<path d="M138.441 110.906L137.173 107.031H137.127L135.858 110.906H131.822V110.952L135.086 113.316L133.806 117.213L133.84 117.225L137.15 114.826L140.459 117.225L140.494 117.213L139.214 113.316L142.477 110.952V110.906H138.441Z" fill="#3C70A6"/>
<path d="M156.934 110.906L155.666 107.031H155.62L154.351 110.906H150.315V110.952L153.579 113.316L152.299 117.213L152.333 117.225L155.643 114.826L158.953 117.225L158.987 117.213L157.707 113.316L160.971 110.952V110.906H156.934Z" fill="#3C70A6"/>
<path d="M175.428 110.906L174.159 107.031H174.113L172.845 110.906H168.809V110.952L172.072 113.316L170.792 117.213L170.827 117.225L174.136 114.826L177.446 117.225L177.48 117.213L176.2 113.316L179.464 110.952V110.906H175.428Z" fill="#3C70A6"/>
<path d="M193.921 110.906L192.652 107.031H192.606L191.338 110.906H187.302V110.952L190.565 113.316L189.285 117.213L189.32 117.225L192.629 114.826L195.939 117.225L195.973 117.213L194.693 113.316L197.957 110.952V110.906H193.921Z" fill="#3C70A6"/>
<path d="M212.414 110.906L211.145 107.031H211.099L209.831 110.906H205.795V110.952L209.058 113.316L207.778 117.213L207.813 117.225L211.123 114.826L214.432 117.225L214.467 117.213L213.187 113.316L216.45 110.952V110.906H212.414Z" fill="#3C70A6"/>
<path d="M230.907 110.906L229.639 107.031H229.593L228.324 110.906H224.288V110.952L227.551 113.316L226.271 117.213L226.306 117.225L229.616 114.826L232.925 117.225L232.96 117.213L231.68 113.316L234.943 110.952V110.906H230.907Z" fill="#3C70A6"/>
<path d="M249.4 110.906L248.132 107.031H248.086L246.817 110.906H242.781V110.952L246.045 113.316L244.765 117.213L244.799 117.225L248.109 114.826L251.418 117.225L251.453 117.213L250.173 113.316L253.436 110.952V110.906H249.4Z" fill="#3C70A6"/>
<path d="M267.893 110.906L266.625 107.031H266.579L265.31 110.906H261.274V110.952L264.538 113.316L263.258 117.213L263.292 117.225L266.602 114.826L269.911 117.225L269.946 117.213L268.666 113.316L271.929 110.952V110.906H267.893Z" fill="#3C70A6"/>
<path d="M273.474 191.866C273.474 199.505 267.281 205.698 259.642 205.698L14.3584 205.698C6.71927 205.698 0.526581 199.505 0.526582 191.866L0.526588 119.019L273.474 119.019L273.474 191.866Z" fill="#3C70A6"/>
<path d="M46.8064 164.033H42.3858C42.3268 163.579 42.206 163.169 42.0233 162.804C41.8406 162.438 41.5989 162.126 41.2983 161.866C40.9977 161.607 40.6411 161.41 40.2285 161.274C39.8218 161.133 39.3709 161.062 38.8758 161.062C37.9975 161.062 37.2401 161.277 36.6035 161.707C35.9729 162.138 35.4866 162.759 35.1447 163.573C34.8088 164.386 34.6408 165.371 34.6408 166.526C34.6408 167.728 34.8117 168.736 35.1536 169.55C35.5013 170.357 35.9876 170.967 36.6124 171.38C37.2431 171.786 37.9887 171.99 38.8492 171.99C39.3326 171.99 39.7717 171.928 40.1666 171.804C40.5674 171.68 40.9181 171.501 41.2187 171.265C41.5252 171.023 41.7757 170.731 41.9702 170.39C42.1706 170.042 42.3092 169.65 42.3858 169.214L46.8064 169.24C46.7298 170.042 46.497 170.832 46.108 171.61C45.7249 172.388 45.1973 173.098 44.5254 173.74C43.8534 174.377 43.0341 174.884 42.0675 175.261C41.1067 175.638 40.0045 175.827 38.7608 175.827C37.1222 175.827 35.6546 175.467 34.3578 174.748C33.067 174.023 32.0473 172.968 31.2987 171.583C30.5502 170.198 30.1759 168.512 30.1759 166.526C30.1759 164.534 30.5561 162.845 31.3164 161.46C32.0768 160.075 33.1053 159.023 34.4021 158.303C35.6988 157.584 37.1517 157.225 38.7608 157.225C39.8572 157.225 40.871 157.378 41.8023 157.685C42.7335 157.985 43.5528 158.427 44.2601 159.011C44.9674 159.588 45.5421 160.299 45.9842 161.142C46.4263 161.984 46.7004 162.948 46.8064 164.033ZM66.4011 166.526C66.4011 168.518 66.0179 170.207 65.2517 171.592C64.4854 172.977 63.448 174.029 62.1395 174.748C60.8369 175.467 59.3751 175.827 57.7542 175.827C56.1274 175.827 54.6627 175.464 53.3601 174.739C52.0575 174.014 51.023 172.962 50.2568 171.583C49.4964 170.198 49.1162 168.512 49.1162 166.526C49.1162 164.534 49.4964 162.845 50.2568 161.46C51.023 160.075 52.0575 159.023 53.3601 158.303C54.6627 157.584 56.1274 157.225 57.7542 157.225C59.3751 157.225 60.8369 157.584 62.1395 158.303C63.448 159.023 64.4854 160.075 65.2517 161.46C66.0179 162.845 66.4011 164.534 66.4011 166.526ZM61.9273 166.526C61.9273 165.347 61.7594 164.351 61.4234 163.538C61.0933 162.724 60.6159 162.108 59.9911 161.69C59.3722 161.271 58.6266 161.062 57.7542 161.062C56.8878 161.062 56.1422 161.271 55.5174 161.69C54.8926 162.108 54.4122 162.724 54.0762 163.538C53.7462 164.351 53.5811 165.347 53.5811 166.526C53.5811 167.705 53.7462 168.701 54.0762 169.514C54.4122 170.328 54.8926 170.944 55.5174 171.362C56.1422 171.781 56.8878 171.99 57.7542 171.99C58.6266 171.99 59.3722 171.781 59.9911 171.362C60.6159 170.944 61.0933 170.328 61.4234 169.514C61.7594 168.701 61.9273 167.705 61.9273 166.526ZM68.9562 157.472H74.3759L78.9734 168.683H79.1856L83.7831 157.472H89.2029V175.579H84.9413V164.457H84.791L80.4411 175.464H77.718L73.368 164.395H73.2177V175.579H68.9562V157.472ZM91.9326 157.472H97.3524L101.95 168.683H102.162L106.76 157.472H112.179V175.579H107.918V164.457H107.767L103.418 175.464H100.694L96.3444 164.395H96.1941V175.579H91.9326V157.472ZM119.285 157.472V175.579H114.909V157.472H119.285ZM121.441 161.027V157.472H136.745V161.027H131.254V175.579H126.94V161.027H121.441ZM138.29 161.027V157.472H153.594V161.027H148.104V175.579H143.789V161.027H138.29ZM155.732 175.579V157.472H168.357V161.027H160.108V164.74H167.712V168.303H160.108V172.025H168.357V175.579H155.732ZM171.098 175.579V157.472H183.723V161.027H175.474V164.74H183.078V168.303H175.474V172.025H183.723V175.579H171.098ZM186.464 157.472H191.884L196.481 168.683H196.694L201.291 157.472H206.711V175.579H202.449V164.457H202.299L197.949 175.464H195.226L190.876 164.395H190.726V175.579H186.464V157.472ZM213.357 175.579H208.654L214.763 157.472H220.589L226.699 175.579H221.995L217.743 162.034H217.601L213.357 175.579ZM212.73 168.453H222.561V171.778H212.73V168.453ZM244.059 157.472V175.579H240.345L233.14 165.129H233.025V175.579H228.648V157.472H232.415L239.541 167.905H239.691V157.472H244.059Z" fill="white"/>
<path d="M63.7664 146.966L60.2279 135.501L64.347 134.229L64.596 135.036L61.5527 135.975L62.8851 140.293L65.4188 139.511L65.6634 140.303L63.1297 141.085L64.8421 146.634L63.7664 146.966ZM71.988 144.584C71.2236 144.82 70.5793 144.858 70.0549 144.7C69.5371 144.529 69.1069 144.207 68.7646 143.734C68.4287 143.248 68.1545 142.661 67.9419 141.972L66.474 137.216C66.2585 136.518 66.1618 135.886 66.1838 135.321C66.2124 134.744 66.3953 134.248 66.7326 133.834C67.0793 133.417 67.6254 133.094 68.3709 132.864C69.107 132.636 69.731 132.599 70.243 132.751C70.7645 132.9 71.195 133.206 71.5344 133.67C71.871 134.124 72.147 134.701 72.3625 135.399L73.8347 140.169C74.0473 140.858 74.1455 141.494 74.1293 142.078C74.1196 142.65 73.9491 143.152 73.6176 143.585C73.2862 144.018 72.743 144.351 71.988 144.584ZM71.7215 143.72C72.2217 143.566 72.5733 143.349 72.7764 143.069C72.9765 142.78 73.0684 142.442 73.0521 142.054C73.0424 141.654 72.9632 141.213 72.8147 140.732L71.2114 135.537C71.0629 135.056 70.8814 134.652 70.6669 134.325C70.4619 133.996 70.1982 133.778 69.8757 133.67C69.5503 133.554 69.1375 133.573 68.6374 133.727C68.1278 133.884 67.7668 134.104 67.5542 134.387C67.3483 134.657 67.2487 134.988 67.2556 135.378C67.2719 135.766 67.3543 136.2 67.5028 136.682L69.1061 141.877C69.2546 142.358 69.4328 142.768 69.6408 143.107C69.8552 143.433 70.1266 143.66 70.4549 143.786C70.7898 143.899 71.212 143.878 71.7215 143.72ZM76.6635 142.986L73.125 131.52L75.7154 130.721C76.4326 130.5 77.0305 130.444 77.5091 130.555C77.9942 130.653 78.3948 130.897 78.711 131.285C79.0242 131.663 79.2741 132.155 79.4605 132.759C79.5915 133.183 79.6681 133.599 79.6902 134.006C79.7124 134.412 79.651 134.783 79.506 135.117C79.3611 135.451 79.0941 135.724 78.7051 135.938L82.2689 141.256L81.2214 141.579L77.7983 136.465L76.0006 137.02L77.7393 142.654L76.6635 142.986ZM75.756 136.228L77.214 135.778C77.6952 135.629 78.0432 135.434 78.2579 135.192C78.4727 134.95 78.5886 134.656 78.6057 134.309C78.6228 133.963 78.5586 133.554 78.413 133.082C78.1946 132.374 77.9088 131.884 77.5557 131.61C77.2026 131.337 76.6627 131.312 75.9361 131.536L74.4498 131.995L75.756 136.228Z" fill="white"/>
<path d="M90.175 147.373V129.46H97.5743C98.9154 129.46 100.073 129.723 101.047 130.247C102.026 130.766 102.781 131.492 103.312 132.425C103.843 133.352 104.108 134.431 104.108 135.661C104.108 136.898 103.837 137.979 103.294 138.906C102.758 139.828 101.991 140.542 100.994 141.049C99.9971 141.556 98.8134 141.81 97.4432 141.81H92.8776V138.399H96.6385C97.2916 138.399 97.8367 138.285 98.274 138.058C98.7172 137.831 99.0525 137.513 99.2799 137.105C99.5073 136.691 99.621 136.21 99.621 135.661C99.621 135.107 99.5073 134.629 99.2799 134.227C99.0525 133.819 98.7172 133.504 98.274 133.282C97.8309 133.061 97.2857 132.95 96.6385 132.95H94.5044V147.373H90.175ZM106.242 147.373V129.46H113.641C114.982 129.46 116.14 129.702 117.114 130.186C118.093 130.664 118.848 131.352 119.379 132.25C119.909 133.143 120.175 134.201 120.175 135.425C120.175 136.667 119.904 137.723 119.361 138.591C118.819 139.454 118.049 140.113 117.052 140.568C116.055 141.017 114.874 141.242 113.51 141.242H108.831V137.831H112.705C113.358 137.831 113.904 137.746 114.341 137.577C114.784 137.402 115.119 137.14 115.347 136.79C115.574 136.434 115.688 135.979 115.688 135.425C115.688 134.871 115.574 134.414 115.347 134.052C115.119 133.685 114.784 133.411 114.341 133.23C113.898 133.043 113.353 132.95 112.705 132.95H110.571V147.373H106.242ZM116.326 139.186L120.787 147.373H116.064L111.691 139.186H116.326ZM122.549 147.373V129.46H135.039V132.976H126.879V136.65H134.401V140.175H126.879V143.857H135.039V147.373H122.549ZM154.01 135.95H149.636C149.578 135.501 149.459 135.096 149.278 134.734C149.097 134.373 148.858 134.064 148.561 133.807C148.263 133.551 147.911 133.355 147.502 133.221C147.1 133.081 146.654 133.011 146.164 133.011C145.295 133.011 144.546 133.224 143.916 133.65C143.293 134.075 142.811 134.691 142.473 135.495C142.141 136.3 141.975 137.274 141.975 138.417C141.975 139.606 142.144 140.603 142.482 141.408C142.826 142.207 143.307 142.81 143.925 143.218C144.549 143.621 145.287 143.822 146.138 143.822C146.616 143.822 147.051 143.76 147.441 143.638C147.838 143.516 148.185 143.338 148.482 143.105C148.785 142.865 149.033 142.577 149.225 142.239C149.424 141.895 149.561 141.507 149.636 141.075L154.01 141.102C153.934 141.895 153.704 142.676 153.319 143.446C152.94 144.215 152.418 144.918 151.753 145.553C151.088 146.183 150.278 146.685 149.322 147.058C148.371 147.431 147.281 147.618 146.051 147.618C144.43 147.618 142.978 147.262 141.695 146.551C140.418 145.833 139.409 144.79 138.669 143.419C137.928 142.049 137.558 140.381 137.558 138.417C137.558 136.446 137.934 134.775 138.686 133.405C139.438 132.035 140.456 130.994 141.739 130.282C143.021 129.571 144.459 129.215 146.051 129.215C147.135 129.215 148.138 129.367 149.059 129.67C149.981 129.968 150.791 130.405 151.491 130.982C152.19 131.554 152.759 132.256 153.196 133.09C153.634 133.924 153.905 134.877 154.01 135.95ZM160.816 129.46V147.373H156.487V129.46H160.816ZM178.779 129.46V147.373H175.106L167.977 137.035H167.864V147.373H163.534V129.46H167.26L174.31 139.781H174.458V129.46H178.779ZM197.761 135.95H193.388C193.329 135.501 193.21 135.096 193.029 134.734C192.848 134.373 192.609 134.064 192.312 133.807C192.014 133.551 191.662 133.355 191.253 133.221C190.851 133.081 190.405 133.011 189.915 133.011C189.046 133.011 188.297 133.224 187.667 133.65C187.044 134.075 186.563 134.691 186.224 135.495C185.892 136.3 185.726 137.274 185.726 138.417C185.726 139.606 185.895 140.603 186.233 141.408C186.577 142.207 187.058 142.81 187.676 143.218C188.3 143.621 189.038 143.822 189.889 143.822C190.367 143.822 190.802 143.76 191.192 143.638C191.589 143.516 191.936 143.338 192.233 143.105C192.536 142.865 192.784 142.577 192.976 142.239C193.175 141.895 193.312 141.507 193.388 141.075L197.761 141.102C197.685 141.895 197.455 142.676 197.07 143.446C196.691 144.215 196.169 144.918 195.504 145.553C194.839 146.183 194.029 146.685 193.073 147.058C192.122 147.431 191.032 147.618 189.802 147.618C188.181 147.618 186.729 147.262 185.446 146.551C184.169 145.833 183.16 144.79 182.42 143.419C181.679 142.049 181.309 140.381 181.309 138.417C181.309 136.446 181.685 134.775 182.437 133.405C183.189 132.035 184.207 130.994 185.49 130.282C186.772 129.571 188.21 129.215 189.802 129.215C190.886 129.215 191.889 129.367 192.81 129.67C193.732 129.968 194.542 130.405 195.242 130.982C195.941 131.554 196.51 132.256 196.947 133.09C197.385 133.924 197.656 134.877 197.761 135.95ZM199.652 132.976V129.46H214.792V132.976H209.36V147.373H205.092V132.976H199.652Z" fill="white"/>
<path d="M85.5579 192.794V185.23H90.5665V186.548H87.1572V188.351H90.2341V189.669H87.1572V192.794H85.5579ZM93.1595 192.901C92.7975 192.901 92.475 192.839 92.1918 192.713C91.9086 192.585 91.6845 192.397 91.5195 192.148C91.357 191.897 91.2757 191.584 91.2757 191.21C91.2757 190.895 91.3336 190.63 91.4493 190.416C91.5651 190.201 91.7227 190.029 91.9221 189.899C92.1216 189.768 92.3481 189.669 92.6018 189.603C92.8579 189.537 93.1263 189.49 93.407 189.463C93.737 189.428 94.0029 189.396 94.2049 189.367C94.4068 189.335 94.5533 189.288 94.6444 189.226C94.7355 189.165 94.7811 189.074 94.7811 188.953V188.931C94.7811 188.697 94.7072 188.516 94.5594 188.388C94.4142 188.26 94.2073 188.196 93.9389 188.196C93.6557 188.196 93.4304 188.258 93.263 188.384C93.0955 188.507 92.9847 188.662 92.9305 188.849L91.4752 188.731C91.5491 188.387 91.6944 188.089 91.9111 187.837C92.1278 187.584 92.4072 187.389 92.7495 187.254C93.0943 187.116 93.4932 187.047 93.9463 187.047C94.2615 187.047 94.5631 187.084 94.8513 187.158C95.1418 187.232 95.3992 187.346 95.6232 187.501C95.8498 187.656 96.0283 187.856 96.1588 188.1C96.2893 188.341 96.3546 188.63 96.3546 188.968V192.794H94.8623V192.008H94.818C94.7269 192.185 94.605 192.341 94.4523 192.477C94.2997 192.61 94.1162 192.714 93.902 192.791C93.6877 192.865 93.4403 192.901 93.1595 192.901ZM93.6102 191.816C93.8416 191.816 94.046 191.77 94.2233 191.679C94.4006 191.585 94.5397 191.46 94.6407 191.302C94.7417 191.145 94.7922 190.966 94.7922 190.767V190.164C94.7429 190.196 94.6752 190.226 94.589 190.253C94.5053 190.278 94.4105 190.301 94.3046 190.323C94.1987 190.343 94.0928 190.361 93.9869 190.379C93.881 190.393 93.785 190.407 93.6988 190.419C93.5141 190.446 93.3528 190.489 93.2149 190.549C93.077 190.608 92.9699 190.688 92.8936 190.789C92.8172 190.887 92.7791 191.01 92.7791 191.158C92.7791 191.372 92.8566 191.536 93.0118 191.649C93.1694 191.76 93.3688 191.816 93.6102 191.816ZM97.5754 192.794V187.121H99.1489V192.794H97.5754ZM98.3658 186.389C98.1319 186.389 97.9312 186.312 97.7637 186.157C97.5988 185.999 97.5163 185.811 97.5163 185.592C97.5163 185.375 97.5988 185.189 97.7637 185.034C97.9312 184.876 98.1319 184.797 98.3658 184.797C98.5998 184.797 98.7992 184.876 98.9642 185.034C99.1316 185.189 99.2154 185.375 99.2154 185.592C99.2154 185.811 99.1316 185.999 98.9642 186.157C98.7992 186.312 98.5998 186.389 98.3658 186.389ZM103.427 187.121V188.303H100.01V187.121H103.427ZM100.786 185.762H102.36V191.051C102.36 191.196 102.382 191.309 102.426 191.391C102.47 191.47 102.532 191.525 102.611 191.557C102.692 191.589 102.786 191.605 102.892 191.605C102.965 191.605 103.039 191.599 103.113 191.587C103.187 191.572 103.244 191.561 103.283 191.553L103.531 192.724C103.452 192.749 103.341 192.777 103.198 192.809C103.055 192.844 102.882 192.865 102.677 192.872C102.298 192.887 101.966 192.836 101.68 192.72C101.397 192.605 101.176 192.425 101.019 192.181C100.861 191.937 100.784 191.63 100.786 191.258V185.762ZM106.148 189.514V192.794H104.574V185.23H106.103V188.122H106.17C106.298 187.787 106.505 187.525 106.79 187.335C107.076 187.143 107.434 187.047 107.865 187.047C108.259 187.047 108.603 187.133 108.896 187.306C109.191 187.475 109.42 187.72 109.583 188.041C109.748 188.358 109.829 188.739 109.826 189.182V192.794H108.253V189.463C108.255 189.113 108.167 188.841 107.987 188.646C107.81 188.452 107.561 188.355 107.241 188.355C107.027 188.355 106.837 188.4 106.672 188.491C106.51 188.582 106.381 188.715 106.288 188.89C106.197 189.062 106.15 189.271 106.148 189.514ZM112.775 191.76L112.734 192.166C112.702 192.491 112.641 192.815 112.55 193.138C112.461 193.463 112.367 193.757 112.269 194.021C112.173 194.284 112.095 194.491 112.036 194.641H111.017C111.054 194.496 111.104 194.293 111.168 194.032C111.232 193.773 111.293 193.483 111.349 193.16C111.406 192.837 111.442 192.509 111.456 192.174L111.475 191.76H112.775ZM116.295 192.794V185.23H121.304V186.548H117.894V188.351H120.971V189.669H117.894V192.794H116.295ZM123.897 192.901C123.535 192.901 123.212 192.839 122.929 192.713C122.646 192.585 122.422 192.397 122.257 192.148C122.094 191.897 122.013 191.584 122.013 191.21C122.013 190.895 122.071 190.63 122.187 190.416C122.302 190.201 122.46 190.029 122.659 189.899C122.859 189.768 123.085 189.669 123.339 189.603C123.595 189.537 123.864 189.49 124.144 189.463C124.474 189.428 124.74 189.396 124.942 189.367C125.144 189.335 125.291 189.288 125.382 189.226C125.473 189.165 125.518 189.074 125.518 188.953V188.931C125.518 188.697 125.444 188.516 125.297 188.388C125.151 188.26 124.945 188.196 124.676 188.196C124.393 188.196 124.168 188.258 124 188.384C123.833 188.507 123.722 188.662 123.668 188.849L122.212 188.731C122.286 188.387 122.432 188.089 122.648 187.837C122.865 187.584 123.144 187.389 123.487 187.254C123.832 187.116 124.23 187.047 124.684 187.047C124.999 187.047 125.3 187.084 125.588 187.158C125.879 187.232 126.136 187.346 126.36 187.501C126.587 187.656 126.766 187.856 126.896 188.1C127.027 188.341 127.092 188.63 127.092 188.968V192.794H125.6V192.008H125.555C125.464 192.185 125.342 192.341 125.19 192.477C125.037 192.61 124.853 192.714 124.639 192.791C124.425 192.865 124.177 192.901 123.897 192.901ZM124.347 191.816C124.579 191.816 124.783 191.77 124.961 191.679C125.138 191.585 125.277 191.46 125.378 191.302C125.479 191.145 125.529 190.966 125.529 190.767V190.164C125.48 190.196 125.412 190.226 125.326 190.253C125.243 190.278 125.148 190.301 125.042 190.323C124.936 190.343 124.83 190.361 124.724 190.379C124.618 190.393 124.522 190.407 124.436 190.419C124.251 190.446 124.09 190.489 123.952 190.549C123.814 190.608 123.707 190.688 123.631 190.789C123.554 190.887 123.516 191.01 123.516 191.158C123.516 191.372 123.594 191.536 123.749 191.649C123.907 191.76 124.106 191.816 124.347 191.816ZM128.313 192.794V187.121H129.812V188.122H129.879C129.997 187.789 130.194 187.527 130.47 187.335C130.746 187.143 131.075 187.047 131.46 187.047C131.849 187.047 132.18 187.144 132.453 187.339C132.727 187.531 132.909 187.792 133 188.122H133.059C133.175 187.797 133.384 187.537 133.687 187.342C133.992 187.145 134.353 187.047 134.769 187.047C135.299 187.047 135.728 187.216 136.058 187.553C136.391 187.888 136.557 188.363 136.557 188.979V192.794H134.987V189.289C134.987 188.974 134.903 188.737 134.736 188.58C134.569 188.422 134.359 188.343 134.108 188.343C133.822 188.343 133.6 188.435 133.439 188.617C133.279 188.797 133.199 189.034 133.199 189.33V192.794H131.674V189.256C131.674 188.978 131.594 188.756 131.434 188.591C131.276 188.426 131.068 188.343 130.81 188.343C130.635 188.343 130.477 188.388 130.337 188.476C130.199 188.563 130.089 188.685 130.008 188.842C129.927 188.997 129.886 189.179 129.886 189.389V192.794H128.313ZM137.8 192.794V187.121H139.373V192.794H137.8ZM138.59 186.389C138.356 186.389 138.156 186.312 137.988 186.157C137.823 185.999 137.741 185.811 137.741 185.592C137.741 185.375 137.823 185.189 137.988 185.034C138.156 184.876 138.356 184.797 138.59 184.797C138.824 184.797 139.024 184.876 139.189 185.034C139.356 185.189 139.44 185.375 139.44 185.592C139.44 185.811 139.356 185.999 139.189 186.157C139.024 186.312 138.824 186.389 138.59 186.389ZM142.207 185.23V192.794H140.634V185.23H142.207ZM144.439 194.922C144.24 194.922 144.053 194.906 143.878 194.874C143.706 194.844 143.563 194.806 143.449 194.759L143.804 193.585C143.989 193.641 144.155 193.672 144.303 193.677C144.453 193.682 144.582 193.648 144.691 193.574C144.801 193.5 144.891 193.374 144.96 193.197L145.052 192.957L143.017 187.121H144.672L145.847 191.287H145.906L147.091 187.121H148.757L146.552 193.408C146.446 193.713 146.302 193.979 146.12 194.205C145.94 194.434 145.712 194.61 145.437 194.734C145.161 194.859 144.828 194.922 144.439 194.922ZM150.917 191.76L150.877 192.166C150.845 192.491 150.783 192.815 150.692 193.138C150.603 193.463 150.51 193.757 150.411 194.021C150.315 194.284 150.238 194.491 150.178 194.641H149.159C149.196 194.496 149.246 194.293 149.31 194.032C149.374 193.773 149.435 193.483 149.491 193.16C149.548 192.837 149.584 192.509 149.599 192.174L149.617 191.76H150.917ZM154.437 192.794V185.23H159.446V186.548H156.037V188.351H159.114V189.669H156.037V192.794H154.437ZM160.401 192.794V187.121H161.926V188.111H161.985C162.089 187.759 162.262 187.493 162.506 187.313C162.75 187.131 163.031 187.04 163.348 187.04C163.427 187.04 163.512 187.044 163.603 187.054C163.694 187.064 163.774 187.078 163.843 187.095V188.491C163.769 188.469 163.667 188.449 163.537 188.432C163.406 188.415 163.287 188.406 163.178 188.406C162.947 188.406 162.74 188.457 162.558 188.558C162.378 188.656 162.235 188.794 162.129 188.971C162.026 189.149 161.974 189.353 161.974 189.585V192.794H160.401ZM166.978 192.905C166.395 192.905 165.892 192.787 165.471 192.551C165.053 192.312 164.73 191.974 164.504 191.539C164.277 191.1 164.164 190.582 164.164 189.983C164.164 189.4 164.277 188.888 164.504 188.447C164.73 188.006 165.049 187.663 165.46 187.416C165.874 187.17 166.359 187.047 166.916 187.047C167.29 187.047 167.638 187.107 167.961 187.228C168.286 187.346 168.569 187.525 168.81 187.764C169.054 188.002 169.244 188.303 169.379 188.665C169.515 189.024 169.582 189.445 169.582 189.928V190.36H164.792V189.385H168.101C168.101 189.159 168.052 188.958 167.954 188.783C167.855 188.608 167.718 188.471 167.544 188.373C167.371 188.272 167.17 188.222 166.941 188.222C166.703 188.222 166.491 188.277 166.306 188.388C166.124 188.496 165.981 188.643 165.878 188.827C165.774 189.01 165.721 189.213 165.719 189.437V190.364C165.719 190.645 165.771 190.887 165.874 191.092C165.98 191.296 166.129 191.454 166.321 191.564C166.513 191.675 166.741 191.731 167.004 191.731C167.179 191.731 167.339 191.706 167.484 191.657C167.63 191.607 167.754 191.534 167.857 191.435C167.961 191.337 168.04 191.216 168.094 191.073L169.549 191.169C169.475 191.519 169.324 191.824 169.095 192.085C168.868 192.344 168.575 192.546 168.216 192.691C167.859 192.834 167.446 192.905 166.978 192.905ZM173.195 192.905C172.611 192.905 172.109 192.787 171.688 192.551C171.269 192.312 170.947 191.974 170.72 191.539C170.494 191.1 170.38 190.582 170.38 189.983C170.38 189.4 170.494 188.888 170.72 188.447C170.947 188.006 171.266 187.663 171.677 187.416C172.09 187.17 172.576 187.047 173.132 187.047C173.506 187.047 173.855 187.107 174.177 187.228C174.502 187.346 174.786 187.525 175.027 187.764C175.271 188.002 175.46 188.303 175.596 188.665C175.731 189.024 175.799 189.445 175.799 189.928V190.36H171.008V189.385H174.318C174.318 189.159 174.269 188.958 174.17 188.783C174.072 188.608 173.935 188.471 173.76 188.373C173.588 188.272 173.387 188.222 173.158 188.222C172.919 188.222 172.707 188.277 172.523 188.388C172.34 188.496 172.198 188.643 172.094 188.827C171.991 189.01 171.938 189.213 171.935 189.437V190.364C171.935 190.645 171.987 190.887 172.09 191.092C172.196 191.296 172.345 191.454 172.537 191.564C172.729 191.675 172.957 191.731 173.221 191.731C173.396 191.731 173.556 191.706 173.701 191.657C173.846 191.607 173.971 191.534 174.074 191.435C174.177 191.337 174.256 191.216 174.31 191.073L175.766 191.169C175.692 191.519 175.54 191.824 175.311 192.085C175.085 192.344 174.792 192.546 174.432 192.691C174.075 192.834 173.663 192.905 173.195 192.905ZM178.916 192.887C178.486 192.887 178.095 192.776 177.746 192.554C177.398 192.33 177.123 192.001 176.918 191.568C176.716 191.132 176.615 190.598 176.615 189.965C176.615 189.315 176.72 188.774 176.929 188.343C177.139 187.91 177.417 187.586 177.764 187.372C178.114 187.155 178.497 187.047 178.913 187.047C179.23 187.047 179.495 187.101 179.707 187.209C179.921 187.315 180.094 187.448 180.224 187.608C180.357 187.766 180.458 187.921 180.527 188.074H180.575V185.23H182.145V192.794H180.593V191.886H180.527C180.453 192.043 180.348 192.2 180.213 192.355C180.08 192.507 179.906 192.634 179.692 192.735C179.48 192.836 179.222 192.887 178.916 192.887ZM179.415 191.635C179.669 191.635 179.883 191.566 180.058 191.428C180.235 191.287 180.371 191.092 180.464 190.84C180.56 190.589 180.608 190.295 180.608 189.958C180.608 189.62 180.561 189.327 180.468 189.078C180.374 188.83 180.239 188.638 180.062 188.502C179.884 188.367 179.669 188.299 179.415 188.299C179.157 188.299 178.939 188.369 178.761 188.51C178.584 188.65 178.45 188.845 178.359 189.093C178.268 189.342 178.222 189.63 178.222 189.958C178.222 190.288 178.268 190.579 178.359 190.833C178.452 191.084 178.586 191.281 178.761 191.424C178.939 191.564 179.157 191.635 179.415 191.635ZM186.002 192.905C185.428 192.905 184.932 192.783 184.513 192.54C184.097 192.293 183.776 191.951 183.549 191.513C183.323 191.072 183.209 190.561 183.209 189.98C183.209 189.394 183.323 188.881 183.549 188.443C183.776 188.002 184.097 187.66 184.513 187.416C184.932 187.17 185.428 187.047 186.002 187.047C186.576 187.047 187.071 187.17 187.487 187.416C187.905 187.66 188.228 188.002 188.455 188.443C188.681 188.881 188.794 189.394 188.794 189.98C188.794 190.561 188.681 191.072 188.455 191.513C188.228 191.951 187.905 192.293 187.487 192.54C187.071 192.783 186.576 192.905 186.002 192.905ZM186.009 191.686C186.27 191.686 186.488 191.612 186.663 191.465C186.838 191.314 186.97 191.11 187.058 190.851C187.149 190.593 187.195 190.299 187.195 189.969C187.195 189.639 187.149 189.344 187.058 189.086C186.97 188.827 186.838 188.623 186.663 188.473C186.488 188.323 186.27 188.247 186.009 188.247C185.746 188.247 185.524 188.323 185.344 188.473C185.167 188.623 185.033 188.827 184.942 189.086C184.853 189.344 184.809 189.639 184.809 189.969C184.809 190.299 184.853 190.593 184.942 190.851C185.033 191.11 185.167 191.314 185.344 191.465C185.524 191.612 185.746 191.686 186.009 191.686ZM189.818 192.794V187.121H191.317V188.122H191.384C191.502 187.789 191.699 187.527 191.975 187.335C192.25 187.143 192.58 187.047 192.965 187.047C193.354 187.047 193.685 187.144 193.958 187.339C194.232 187.531 194.414 187.792 194.505 188.122H194.564C194.68 187.797 194.889 187.537 195.192 187.342C195.497 187.145 195.858 187.047 196.274 187.047C196.804 187.047 197.233 187.216 197.563 187.553C197.896 187.888 198.062 188.363 198.062 188.979V192.794H196.492V189.289C196.492 188.974 196.408 188.737 196.241 188.58C196.073 188.422 195.864 188.343 195.613 188.343C195.327 188.343 195.104 188.435 194.944 188.617C194.784 188.797 194.704 189.034 194.704 189.33V192.794H193.179V189.256C193.179 188.978 193.099 188.756 192.939 188.591C192.781 188.426 192.573 188.343 192.314 188.343C192.14 188.343 191.982 188.388 191.842 188.476C191.704 188.563 191.594 188.685 191.513 188.842C191.432 188.997 191.391 189.179 191.391 189.389V192.794H189.818Z" fill="white"/>
</svg>
