<svg width="403" height="66" viewBox="0 0 403 66" fill="none" xmlns="http://www.w3.org/2000/svg">
<rect width="401.859" height="64.4094" transform="translate(0.509766 0.739502)" fill="#102957"/>
<path d="M32.1703 30.594L29.7257 23.1272H29.6369L27.1923 30.594H19.4141V30.6828L25.7032 35.2387L23.2365 42.7501L23.3032 42.7727L29.6816 38.1501L36.0594 42.7727L36.1261 42.7501L33.6594 35.2387L39.9485 30.6828V30.594H32.1703Z" fill="white"/>
<path d="M49.9936 40.45V24.7928H60.6815V27.8661H53.7779V31.077H60.001V34.158H53.7779V40.45H49.9936ZM64.0185 40.45H59.9513L65.2341 24.7928H70.2722L75.555 40.45H71.4878L67.8105 28.7376H67.6882L64.0185 40.45ZM63.4757 34.288H71.9771V37.1626H63.4757V34.288ZM81.0251 24.7928V40.45H77.2408V24.7928H81.0251ZM82.8886 27.8661V24.7928H96.1223V27.8661H91.3747V40.45H87.6439V27.8661H82.8886ZM97.9705 40.45V24.7928H101.755V31.077H107.924V24.7928H111.701V40.45H107.924V34.158H101.755V40.45H97.9705Z" fill="white"/>
<path d="M139.172 30.594L136.728 23.1272H136.639L134.194 30.594H126.416V30.6828L132.705 35.2387L130.238 42.7501L130.305 42.7727L136.684 38.1501L143.061 42.7727L143.128 42.7501L140.661 35.2387L146.95 30.6828V30.594H139.172Z" fill="#F6FBFD"/>
<path d="M156.996 40.45V24.7928H167.683V27.8661H160.78V31.077H167.003V34.158H160.78V40.45H156.996ZM171.02 40.45H166.953L172.236 24.7928H177.274L182.557 40.45H178.49L174.812 28.7376H174.69L171.02 40.45ZM170.478 34.288H178.979V37.1626H170.478V34.288ZM184.243 24.7928H188.929L192.905 34.4868H193.088L197.064 24.7928H201.75V40.45H198.065V30.8324H197.935L194.174 40.3506H191.819L188.058 30.7789H187.928V40.45H184.243V24.7928ZM207.895 24.7928V40.45H204.11V24.7928H207.895ZM210.271 40.45V24.7928H214.055V37.3766H220.568V40.45H210.271ZM219.33 24.7928H223.558L226.868 31.3446H227.006L230.316 24.7928H234.544L228.818 35.2207V40.45H225.056V35.2207L219.33 24.7928Z" fill="#F6FBFD"/>
<path d="M261.174 30.594L258.73 23.1272H258.641L256.196 30.594H248.418V30.6828L254.707 35.2387L252.24 42.7501L252.307 42.7727L258.685 38.1501L265.063 42.7727L265.13 42.7501L262.663 35.2387L268.952 30.6828V30.594H261.174Z" fill="white"/>
<path d="M278.997 40.45V24.7928H289.685V27.8661H282.782V31.077H289.005V34.158H282.782V40.45H278.997ZM291.591 40.45V24.7928H298.059C299.231 24.7928 300.243 25.0043 301.094 25.4273C301.95 25.8452 302.61 26.4467 303.074 27.2316C303.538 28.0114 303.77 28.9364 303.77 30.0067C303.77 31.0923 303.533 32.0148 303.059 32.7743C302.585 33.5286 301.912 34.1045 301.04 34.5021C300.169 34.8945 299.137 35.0907 297.944 35.0907H293.854V32.1091H297.241C297.811 32.1091 298.288 32.0352 298.67 31.8874C299.058 31.7345 299.351 31.5052 299.549 31.1994C299.748 30.8885 299.848 30.4909 299.848 30.0067C299.848 29.5225 299.748 29.1224 299.549 28.8064C299.351 28.4853 299.058 28.2458 298.67 28.0878C298.283 27.9247 297.806 27.8432 297.241 27.8432H295.375V40.45H291.591ZM300.406 33.2941L304.305 40.45H300.176L296.354 33.2941H300.406ZM305.845 40.45V24.7928H316.762V27.8661H309.63V31.077H316.204V34.158H309.63V37.3766H316.762V40.45H305.845ZM319.132 40.45V24.7928H330.05V27.8661H322.917V31.077H329.492V34.158H322.917V37.3766H330.05V40.45H319.132ZM338.207 40.45H332.42V24.7928H338.199C339.795 24.7928 341.168 25.1062 342.32 25.7331C343.477 26.3549 344.369 27.2519 344.996 28.4242C345.623 29.5913 345.936 30.9878 345.936 32.6137C345.936 34.2447 345.623 35.6463 344.996 36.8185C344.374 37.9908 343.485 38.8903 342.328 39.5172C341.171 40.139 339.797 40.45 338.207 40.45ZM336.204 37.2237H338.062C338.938 37.2237 339.68 37.0759 340.286 36.7803C340.898 36.4796 341.359 35.9929 341.67 35.3201C341.986 34.6422 342.144 33.7401 342.144 32.6137C342.144 31.4873 341.986 30.5903 341.67 29.9226C341.354 29.2499 340.888 28.7657 340.271 28.4701C339.66 28.1694 338.905 28.019 338.008 28.019H336.204V37.2237ZM362.924 32.6214C362.924 34.3441 362.592 35.8043 361.93 37.002C361.267 38.1997 360.37 39.1095 359.239 39.7313C358.112 40.3531 356.848 40.664 355.447 40.664C354.04 40.664 352.773 40.3506 351.647 39.7237C350.521 39.0968 349.626 38.187 348.964 36.9944C348.306 35.7966 347.977 34.339 347.977 32.6214C347.977 30.8987 348.306 29.4384 348.964 28.2407C349.626 27.043 350.521 26.1332 351.647 25.5114C352.773 24.8896 354.04 24.5787 355.447 24.5787C356.848 24.5787 358.112 24.8896 359.239 25.5114C360.37 26.1332 361.267 27.043 361.93 28.2407C362.592 29.4384 362.924 30.8987 362.924 32.6214ZM359.055 32.6214C359.055 31.602 358.91 30.7407 358.619 30.0373C358.334 29.334 357.921 28.8013 357.381 28.4395C356.846 28.0776 356.201 27.8967 355.447 27.8967C354.697 27.8967 354.053 28.0776 353.512 28.4395C352.972 28.8013 352.557 29.334 352.266 30.0373C351.981 30.7407 351.838 31.602 351.838 32.6214C351.838 33.6407 351.981 34.5021 352.266 35.2054C352.557 35.9088 352.972 36.4414 353.512 36.8032C354.053 37.1651 354.697 37.346 355.447 37.346C356.201 37.346 356.846 37.1651 357.381 36.8032C357.921 36.4414 358.334 35.9088 358.619 35.2054C358.91 34.5021 359.055 33.6407 359.055 32.6214ZM365.133 24.7928H369.82L373.795 34.4868H373.978L377.954 24.7928H382.64V40.45H378.955V30.8324H378.825L375.064 40.3506H372.709L368.948 30.7789H368.818V40.45H365.133V24.7928Z" fill="white"/>
</svg>
