<svg width="146" height="275" viewBox="0 0 146 275" fill="none" xmlns="http://www.w3.org/2000/svg">
<mask id="mask0_612_936" style="mask-type:luminance" maskUnits="userSpaceOnUse" x="137" y="19" width="9" height="13">
<path d="M137.639 19H145.816V31.8H137.639V19Z" fill="white"/>
</mask>
<g mask="url(#mask0_612_936)">
<path d="M137.979 29.29L140.029 25.4109L137.979 21.5275L142.32 22.2678L145.391 19.1317L146.024 23.4692L149.971 25.4109L146.024 27.3484L145.391 31.6887L142.32 28.5498L137.979 29.29Z" fill="#F5F6FF"/>
</g>
<mask id="mask1_612_936" style="mask-type:luminance" maskUnits="userSpaceOnUse" x="137" y="56" width="9" height="14">
<path d="M137.639 56.6887H145.816V69.4887H137.639V56.6887Z" fill="white"/>
</mask>
<g mask="url(#mask1_612_936)">
<path d="M137.979 66.8804L140.029 63.0026L137.979 59.1235L142.32 59.861L145.391 56.7193L146.024 61.0596L149.971 63.0026L146.024 64.9387L145.391 69.279L142.32 66.1401L137.979 66.8804Z" fill="#F5F6FF"/>
</g>
<mask id="mask2_612_936" style="mask-type:luminance" maskUnits="userSpaceOnUse" x="137" y="94" width="9" height="14">
<path d="M137.639 94.0222H145.816V107.178H137.639V94.0222Z" fill="white"/>
</mask>
<g mask="url(#mask2_612_936)">
<path d="M137.979 104.473L140.029 100.59L137.979 96.7095L142.32 97.4512L145.391 94.3123L146.024 98.6512L149.971 100.59L146.024 102.532L145.391 106.872L142.32 103.732L137.979 104.473Z" fill="#F5F6FF"/>
</g>
<mask id="mask3_612_936" style="mask-type:luminance" maskUnits="userSpaceOnUse" x="137" y="131" width="9" height="14">
<path d="M137.639 131.711H145.816V144.511H137.639V131.711Z" fill="white"/>
</mask>
<g mask="url(#mask3_612_936)">
<path d="M137.979 142.062L140.029 138.181L137.979 134.303L142.32 135.042L145.391 131.904L146.024 136.242L149.971 138.181L146.024 140.125L145.391 144.461L142.32 141.322L137.979 142.062Z" fill="#F5F6FF"/>
</g>
<mask id="mask4_612_936" style="mask-type:luminance" maskUnits="userSpaceOnUse" x="137" y="169" width="9" height="14">
<path d="M137.639 169.4H145.816V182.2H137.639V169.4Z" fill="white"/>
</mask>
<g mask="url(#mask4_612_936)">
<path d="M137.979 179.653L140.029 175.772L137.979 171.893L142.32 172.633L145.391 169.492L146.024 173.832L149.971 175.772L146.024 177.711L145.391 182.051L142.32 178.915L137.979 179.653Z" fill="#F5F6FF"/>
</g>
<mask id="mask5_612_936" style="mask-type:luminance" maskUnits="userSpaceOnUse" x="137" y="206" width="9" height="14">
<path d="M137.639 206.733H145.816V219.889H137.639V206.733Z" fill="white"/>
</mask>
<g mask="url(#mask5_612_936)">
<path d="M137.979 217.246L140.029 213.363L137.979 209.481L142.32 210.224L145.391 207.082L146.024 211.421L149.971 213.363L146.024 215.301L145.391 219.644L142.32 216.504L137.979 217.246Z" fill="#F5F6FF"/>
</g>
<mask id="mask6_612_936" style="mask-type:luminance" maskUnits="userSpaceOnUse" x="137" y="244" width="9" height="14">
<path d="M137.639 244.422H145.816V257.578H137.639V244.422Z" fill="white"/>
</mask>
<g mask="url(#mask6_612_936)">
<path d="M137.979 254.836L140.029 250.953L137.979 247.075L142.32 247.817L145.391 244.674L146.024 249.011L149.971 250.953L146.024 252.894L145.391 257.233L142.32 254.092L137.979 254.836Z" fill="#F5F6FF"/>
</g>
<path d="M112.452 10.4957L114.502 6.61512L112.452 2.73595L116.792 3.47345L119.863 0.331787L120.497 4.67345L124.444 6.61512L120.497 8.55401L119.863 12.8943L116.792 9.75401L112.452 10.4957Z" fill="#F5F6FF"/>
<path d="M112.452 48.0858L114.502 44.2053L112.452 40.3247L116.792 41.0664L119.863 37.9233L120.497 42.2636L124.444 44.2053L120.497 46.1442L119.863 50.4831L116.792 47.347L112.452 48.0858Z" fill="#F5F6FF"/>
<path d="M112.452 85.6777L114.502 81.7958L112.452 77.918L116.792 78.6555L119.863 75.5166L120.497 79.8541L124.444 81.7958L120.497 83.7374L119.863 88.0735L116.792 84.9347L112.452 85.6777Z" fill="#F5F6FF"/>
<path d="M112.452 123.265L114.502 119.387L112.452 115.505L116.792 116.248L119.863 113.107L120.497 117.447L124.444 119.387L120.497 121.326L119.863 125.664L116.792 122.528L112.452 123.265Z" fill="#F5F6FF"/>
<path d="M112.452 160.861L114.502 156.975L112.452 153.094L116.792 153.836L119.863 150.697L120.497 155.039L124.444 156.975L120.497 158.916L119.863 163.26L116.792 160.116L112.452 160.861Z" fill="#F5F6FF"/>
<path d="M112.452 198.45L114.502 194.568L112.452 190.687L116.792 191.429L119.863 188.292L120.497 192.626L124.444 194.568L120.497 196.51L119.863 200.846L116.792 197.707L112.452 198.45Z" fill="#F5F6FF"/>
<path d="M112.452 236.037L114.502 232.159L112.452 228.278L116.792 229.018L119.863 225.879L120.497 230.216L124.444 232.159L120.497 234.098L119.863 238.436L116.792 235.3L112.452 236.037Z" fill="#F5F6FF"/>
<mask id="mask7_612_936" style="mask-type:luminance" maskUnits="userSpaceOnUse" x="112" y="263" width="13" height="12">
<path d="M112.394 263.266H124.482V275H112.394V263.266Z" fill="white"/>
</mask>
<g mask="url(#mask7_612_936)">
<path d="M112.452 273.63L114.502 269.747L112.452 265.868L116.792 266.608L119.863 263.469L120.497 267.808L124.444 269.747L120.497 271.689L119.863 276.029L116.792 272.889L112.452 273.63Z" fill="#F5F6FF"/>
</g>
<path d="M92.3301 29.2902L94.3773 25.411L92.3301 21.5277L96.6676 22.2679L99.7384 19.1318L100.372 23.4693L104.319 25.411L100.372 27.3485L99.7384 31.6888L96.6676 28.5499L92.3301 29.2902Z" fill="#F5F6FF"/>
<path d="M92.3301 66.8804L94.3773 63.0026L92.3301 59.1234L96.6676 59.8609L99.7384 56.7192L100.372 61.0595L104.319 63.0026L100.372 64.9387L99.7384 69.279L96.6676 66.1401L92.3301 66.8804Z" fill="#F5F6FF"/>
<path d="M92.3301 104.473L94.3773 100.59L92.3301 96.7095L96.6676 97.4511L99.7384 94.3123L100.372 98.6511L104.319 100.59L100.372 102.532L99.7384 106.872L96.6676 103.732L92.3301 104.473Z" fill="#F5F6FF"/>
<path d="M92.3301 142.062L94.3773 138.18L92.3301 134.303L96.6676 135.042L99.7384 131.904L100.372 136.242L104.319 138.18L100.372 140.125L99.7384 144.461L96.6676 141.322L92.3301 142.062Z" fill="#F5F6FF"/>
<path d="M92.3301 179.653L94.3773 175.772L92.3301 171.893L96.6676 172.633L99.7384 169.491L100.372 173.832L104.319 175.772L100.372 177.711L99.7384 182.051L96.6676 178.915L92.3301 179.653Z" fill="#F5F6FF"/>
<path d="M92.3301 217.246L94.3773 213.363L92.3301 209.481L96.6676 210.224L99.7384 207.082L100.372 211.421L104.319 213.363L100.372 215.301L99.7384 219.645L96.6676 216.504L92.3301 217.246Z" fill="#F5F6FF"/>
<path d="M92.3301 254.836L94.3773 250.953L92.3301 247.075L96.6676 247.816L99.7384 244.673L100.372 249.011L104.319 250.953L100.372 252.894L99.7384 257.233L96.6676 254.091L92.3301 254.836Z" fill="#F5F6FF"/>
<path d="M66.7998 10.4957L68.8498 6.61512L66.7998 2.73595L71.1401 3.47345L74.2109 0.331787L74.8442 4.67345L78.7915 6.61512L74.8442 8.55401L74.2109 12.8943L71.1401 9.75401L66.7998 10.4957Z" fill="#F5F6FF"/>
<path d="M66.7998 48.086L68.8498 44.2054L66.7998 40.3249L71.1401 41.0665L74.2109 37.9235L74.8442 42.2637L78.7915 44.2054L74.8442 46.1443L74.2109 50.4832L71.1401 47.3471L66.7998 48.086Z" fill="#F5F6FF"/>
<path d="M66.7998 85.6777L68.8498 81.7957L66.7998 77.9179L71.1401 78.6554L74.2109 75.5165L74.8442 79.854L78.7915 81.7957L74.8442 83.7374L74.2109 88.0735L71.1401 84.9346L66.7998 85.6777Z" fill="#F5F6FF"/>
<path d="M66.7998 123.265L68.8498 119.387L66.7998 115.505L71.1401 116.248L74.2109 113.107L74.8442 117.447L78.7915 119.387L74.8442 121.326L74.2109 125.664L71.1401 122.528L66.7998 123.265Z" fill="#F5F6FF"/>
<path d="M66.7998 160.861L68.8498 156.975L66.7998 153.094L71.1401 153.836L74.2109 150.697L74.8442 155.039L78.7915 156.975L74.8442 158.917L74.2109 163.26L71.1401 160.117L66.7998 160.861Z" fill="#F5F6FF"/>
<path d="M66.7998 198.45L68.8498 194.568L66.7998 190.687L71.1401 191.429L74.2109 188.292L74.8442 192.626L78.7915 194.568L74.8442 196.51L74.2109 200.846L71.1401 197.707L66.7998 198.45Z" fill="#F5F6FF"/>
<path d="M66.7998 236.037L68.8498 232.16L66.7998 228.278L71.1401 229.018L74.2109 225.879L74.8442 230.216L78.7915 232.16L74.8442 234.098L74.2109 238.436L71.1401 235.3L66.7998 236.037Z" fill="#F5F6FF"/>
<mask id="mask8_612_936" style="mask-type:luminance" maskUnits="userSpaceOnUse" x="66" y="263" width="13" height="12">
<path d="M66.5273 263.267H78.9718V275H66.5273V263.267Z" fill="white"/>
</mask>
<g mask="url(#mask8_612_936)">
<path d="M66.7998 273.63L68.8498 269.747L66.7998 265.868L71.1401 266.608L74.2109 263.469L74.8442 267.808L78.7915 269.747L74.8442 271.689L74.2109 276.029L71.1401 272.889L66.7998 273.63Z" fill="#F5F6FF"/>
</g>
<path d="M46.6748 29.2902L48.7248 25.411L46.6748 21.5277L51.0123 22.2679L54.0859 19.1318L54.7192 23.4693L58.6665 25.411L54.7192 27.3485L54.0859 31.6888L51.0123 28.5499L46.6748 29.2902Z" fill="#F5F6FF"/>
<path d="M46.6748 66.8804L48.7248 63.0026L46.6748 59.1234L51.0123 59.8609L54.0859 56.7192L54.7192 61.0595L58.6665 63.0026L54.7192 64.9387L54.0859 69.279L51.0123 66.1401L46.6748 66.8804Z" fill="#F5F6FF"/>
<path d="M46.6748 104.473L48.7248 100.59L46.6748 96.7095L51.0123 97.4511L54.0859 94.3123L54.7192 98.6511L58.6665 100.59L54.7192 102.532L54.0859 106.872L51.0123 103.732L46.6748 104.473Z" fill="#F5F6FF"/>
<path d="M46.6748 142.062L48.7248 138.18L46.6748 134.303L51.0123 135.042L54.0859 131.904L54.7192 136.242L58.6665 138.18L54.7192 140.125L54.0859 144.461L51.0123 141.322L46.6748 142.062Z" fill="#F5F6FF"/>
<path d="M46.6748 179.653L48.7248 175.772L46.6748 171.893L51.0123 172.633L54.0859 169.491L54.7192 173.832L58.6665 175.772L54.7192 177.711L54.0859 182.051L51.0123 178.915L46.6748 179.653Z" fill="#F5F6FF"/>
<path d="M46.6748 217.246L48.7248 213.362L46.6748 209.48L51.0123 210.223L54.0859 207.082L54.7192 211.421L58.6665 213.362L54.7192 215.301L54.0859 219.644L51.0123 216.504L46.6748 217.246Z" fill="#F5F6FF"/>
<path d="M46.6748 254.836L48.7248 250.953L46.6748 247.075L51.0123 247.816L54.0859 244.673L54.7192 249.011L58.6665 250.953L54.7192 252.894L54.0859 257.233L51.0123 254.091L46.6748 254.836Z" fill="#F5F6FF"/>
<path d="M21.1465 10.4957L23.1965 6.61512L21.1465 2.73595L25.484 3.47345L28.5576 0.331787L29.1909 4.67345L33.1382 6.61512L29.1909 8.55401L28.5576 12.8943L25.484 9.75401L21.1465 10.4957Z" fill="#F5F6FF"/>
<path d="M21.1465 48.086L23.1965 44.2054L21.1465 40.3249L25.484 41.0665L28.5576 37.9235L29.1909 42.2637L33.1382 44.2054L29.1909 46.1443L28.5576 50.4832L25.484 47.3471L21.1465 48.086Z" fill="#F5F6FF"/>
<path d="M21.1465 85.6777L23.1965 81.7957L21.1465 77.9179L25.484 78.6554L28.5576 75.5165L29.1909 79.854L33.1382 81.7957L29.1909 83.7374L28.5576 88.0735L25.484 84.9346L21.1465 85.6777Z" fill="#F5F6FF"/>
<path d="M21.1465 123.265L23.1965 119.387L21.1465 115.505L25.484 116.248L28.5576 113.107L29.1909 117.447L33.1382 119.387L29.1909 121.326L28.5576 125.664L25.484 122.528L21.1465 123.265Z" fill="#F5F6FF"/>
<path d="M21.1465 160.861L23.1965 156.975L21.1465 153.094L25.484 153.836L28.5576 150.697L29.1909 155.039L33.1382 156.975L29.1909 158.917L28.5576 163.26L25.484 160.117L21.1465 160.861Z" fill="#F5F6FF"/>
<path d="M21.1465 198.45L23.1965 194.568L21.1465 190.687L25.484 191.429L28.5576 188.292L29.1909 192.626L33.1382 194.568L29.1909 196.51L28.5576 200.846L25.484 197.707L21.1465 198.45Z" fill="#F5F6FF"/>
<path d="M21.1465 236.037L23.1965 232.16L21.1465 228.278L25.484 229.018L28.5576 225.879L29.1909 230.216L33.1382 232.16L29.1909 234.098L28.5576 238.436L25.484 235.3L21.1465 236.037Z" fill="#F5F6FF"/>
<mask id="mask9_612_936" style="mask-type:luminance" maskUnits="userSpaceOnUse" x="21" y="263" width="13" height="12">
<path d="M21.0146 263.266H33.4591V275H21.0146V263.266Z" fill="white"/>
</mask>
<g mask="url(#mask9_612_936)">
<path d="M21.1455 273.63L23.1955 269.747L21.1455 265.868L25.483 266.608L28.5566 263.469L29.19 267.808L33.1372 269.747L29.19 271.689L28.5566 276.029L25.483 272.889L21.1455 273.63Z" fill="#F5F6FF"/>
</g>
<mask id="mask10_612_936" style="mask-type:luminance" maskUnits="userSpaceOnUse" x="0" y="18" width="14" height="14">
<path d="M0.919922 18.9997H13.1935V31.7997H0.919922V18.9997Z" fill="white"/>
</mask>
<g mask="url(#mask10_612_936)">
<path d="M1.02148 29.2901L3.06732 25.4109L1.02148 21.5276L5.3576 22.2679L8.42982 19.1318L9.06315 23.4693L13.0104 25.4109L9.06315 27.3484L8.42982 31.6887L5.3576 28.5498L1.02148 29.2901Z" fill="#F5F6FF"/>
</g>
<mask id="mask11_612_936" style="mask-type:luminance" maskUnits="userSpaceOnUse" x="0" y="56" width="14" height="14">
<path d="M0.919922 56.6887H13.1935V69.4887H0.919922V56.6887Z" fill="white"/>
</mask>
<g mask="url(#mask11_612_936)">
<path d="M1.02148 66.8804L3.06732 63.0026L1.02148 59.1234L5.3576 59.8609L8.42982 56.7192L9.06315 61.0595L13.0104 63.0026L9.06315 64.9387L8.42982 69.279L5.3576 66.1401L1.02148 66.8804Z" fill="#F5F6FF"/>
</g>
<mask id="mask12_612_936" style="mask-type:luminance" maskUnits="userSpaceOnUse" x="0" y="94" width="14" height="14">
<path d="M0.919922 94.0222H13.1935V107.178H0.919922V94.0222Z" fill="white"/>
</mask>
<g mask="url(#mask12_612_936)">
<path d="M1.02148 104.473L3.06732 100.59L1.02148 96.7096L5.3576 97.4513L8.42982 94.3124L9.06315 98.6513L13.0104 100.59L9.06315 102.532L8.42982 106.872L5.3576 103.732L1.02148 104.473Z" fill="#F5F6FF"/>
</g>
<mask id="mask13_612_936" style="mask-type:luminance" maskUnits="userSpaceOnUse" x="0" y="131" width="14" height="14">
<path d="M0.919922 131.711H13.1935V144.511H0.919922V131.711Z" fill="white"/>
</mask>
<g mask="url(#mask13_612_936)">
<path d="M1.02148 142.062L3.06732 138.18L1.02148 134.303L5.3576 135.042L8.42982 131.904L9.06315 136.242L13.0104 138.18L9.06315 140.125L8.42982 144.461L5.3576 141.322L1.02148 142.062Z" fill="#F5F6FF"/>
</g>
<mask id="mask14_612_936" style="mask-type:luminance" maskUnits="userSpaceOnUse" x="0" y="169" width="14" height="14">
<path d="M0.919922 169.4H13.1935V182.2H0.919922V169.4Z" fill="white"/>
</mask>
<g mask="url(#mask14_612_936)">
<path d="M1.02148 179.653L3.06732 175.772L1.02148 171.893L5.3576 172.633L8.42982 169.492L9.06315 173.832L13.0104 175.772L9.06315 177.711L8.42982 182.051L5.3576 178.915L1.02148 179.653Z" fill="#F5F6FF"/>
</g>
<mask id="mask15_612_936" style="mask-type:luminance" maskUnits="userSpaceOnUse" x="0" y="206" width="14" height="14">
<path d="M0.919922 206.733H13.1935V219.889H0.919922V206.733Z" fill="white"/>
</mask>
<g mask="url(#mask15_612_936)">
<path d="M1.02148 217.246L3.06732 213.362L1.02148 209.481L5.3576 210.224L8.42982 207.082L9.06315 211.421L13.0104 213.362L9.06315 215.301L8.42982 219.644L5.3576 216.504L1.02148 217.246Z" fill="#F5F6FF"/>
</g>
<mask id="mask16_612_936" style="mask-type:luminance" maskUnits="userSpaceOnUse" x="0" y="244" width="14" height="14">
<path d="M0.919922 244.422H13.1935V257.578H0.919922V244.422Z" fill="white"/>
</mask>
<g mask="url(#mask16_612_936)">
<path d="M1.02148 254.836L3.06732 250.953L1.02148 247.075L5.3576 247.817L8.42982 244.674L9.06315 249.011L13.0104 250.953L9.06315 252.894L8.42982 257.233L5.3576 254.092L1.02148 254.836Z" fill="#F5F6FF"/>
</g>
</svg>
