<svg width="131" height="49" viewBox="0 0 131 49" fill="none" xmlns="http://www.w3.org/2000/svg">
<path d="M97.7291 22.3662C96.6362 24.0115 95.2224 25.295 93.4468 26.1915C93.4468 26.3646 93.4332 26.5357 93.4488 26.7049C93.6802 29.3264 92.9918 31.7398 91.716 33.9899C90.6542 35.8568 88.9428 36.8058 86.8484 37.1053C85.5687 37.2901 84.3086 37.189 83.0639 36.8409C80.3238 36.0707 78.2818 33.5757 78.3168 30.6177C78.3441 28.1518 78.7855 25.7578 79.9524 23.5506C80.3841 22.7357 80.8722 21.9462 81.374 21.1702C82.2802 19.77 83.6318 19.0835 85.2459 18.8404C85.4132 18.8152 85.5862 18.7685 85.7379 18.6965C87.7643 17.7281 89.8977 18.2142 91.294 19.9742C92.2489 21.178 92.7876 22.5704 93.1007 24.0582C93.1804 24.4471 93.2465 24.8399 93.3243 25.2619C93.4663 25.1939 93.5752 25.1491 93.6783 25.0947C95.4188 24.1554 96.6809 22.7338 97.6825 21.0613C97.7758 20.9038 97.7875 20.6782 97.7875 20.4837C97.7778 18.5254 97.7564 16.5671 97.7427 14.6087C97.7369 13.7239 97.7427 12.8371 97.7427 11.9522C97.7447 11.8219 97.7427 11.6897 97.7427 11.5341C97.5852 11.5341 97.4666 11.5283 97.3499 11.536C96.3211 11.6022 95.2904 11.6683 94.2597 11.7422C92.5756 11.8647 90.8895 11.995 89.2054 12.1156C88.5364 12.1622 87.8635 12.17 87.1965 12.2264C86.1288 12.3159 85.0631 12.4384 83.9935 12.5317C83.5948 12.5668 83.1923 12.5648 82.7936 12.5609C82.6614 12.5609 82.5291 12.5142 82.4027 12.4715C82.1966 12.3976 81.9924 12.3003 81.9496 12.0592C81.9049 11.8141 82.0682 11.6508 82.2491 11.5302C82.4475 11.398 82.6575 11.2618 82.8831 11.1899C83.4432 11.009 84.0052 10.8107 84.5828 10.7154C85.8916 10.4956 87.2062 10.3128 88.5228 10.1475C91.4904 9.77412 94.4775 9.60687 97.4627 9.40851C97.5522 9.40073 97.6436 9.37934 97.7544 9.35989C97.7641 9.2296 97.7758 9.11291 97.7797 8.99428C97.8322 7.66798 97.8672 6.34168 97.9411 5.01537C97.9994 4.01189 98.087 3.00841 98.4059 2.04188C98.4681 1.8513 98.5284 1.65682 98.6159 1.47791C98.7151 1.27371 98.8298 1.07535 98.9621 0.892546C99.5144 0.136047 101.607 0.036865 102.194 1.12202C102.517 1.71906 102.743 2.35109 102.83 3.01619C102.97 4.07996 103.075 5.14761 103.155 6.21721C103.221 7.05928 103.227 7.90524 103.262 8.74925C103.266 8.85426 103.285 8.95734 103.299 9.06041C103.68 9.06041 104.04 9.07013 104.4 9.05846C107.655 8.94178 110.907 8.65979 114.168 8.68896C115.59 8.70257 117.011 8.77842 118.431 8.8212C119.745 8.8601 121.06 8.88927 122.373 8.93011C122.789 8.94372 123.205 8.96317 123.617 9.01568C123.851 9.04485 124.094 9.11291 124.304 9.21987C124.631 9.38517 124.638 9.64771 124.323 9.82663C124.119 9.94137 123.88 10.023 123.647 10.0581C123.17 10.13 122.688 10.1806 122.207 10.2059C120.988 10.27 119.767 10.307 118.549 10.3712C115.617 10.5248 112.684 10.6862 109.751 10.8437C108.05 10.9351 106.35 11.0265 104.648 11.1199C104.225 11.1432 103.799 11.1724 103.353 11.1996C103.346 11.3318 103.334 11.4349 103.334 11.5399C103.346 15.55 103.359 19.5619 103.369 23.572C103.379 26.631 103.406 29.6881 103.377 32.7472C103.363 34.2621 103.24 35.7751 103.169 37.2881C103.161 37.4301 103.167 37.5721 103.167 37.7996C103.342 37.6285 103.468 37.5176 103.583 37.3951C104.452 36.4772 105.179 35.4465 105.928 34.4313C106.819 33.2237 107.717 32.0179 108.637 30.8316C109.357 29.9021 110.207 29.1028 111.231 28.5116C111.439 28.391 111.484 28.249 111.471 28.0235C111.406 26.95 111.397 25.8745 111.618 24.8166C112.132 22.3643 113.304 20.3048 115.335 18.7938C116.375 18.0178 117.528 17.4597 118.837 17.2613C120.622 16.9891 122.283 17.3391 123.824 18.2492C124.691 18.7607 125.317 19.5017 125.447 20.5324C125.694 22.4907 125.025 24.0912 123.437 25.2794C122.874 25.7014 122.239 25.9912 121.589 26.2479C120.294 26.7594 118.938 27.0122 117.569 27.2047C117.371 27.2339 117.173 27.2631 116.922 27.3C116.929 27.4712 116.926 27.6403 116.949 27.8076C117.128 29.1164 117.482 30.3805 117.976 31.6018C118.339 32.4983 118.907 33.2548 119.623 33.9063C119.985 34.2349 120.372 34.3691 120.836 34.1902C121.398 33.9724 121.968 33.774 122.513 33.5193C123.604 33.0039 124.677 32.4535 125.76 31.9246C126.142 31.7379 126.548 31.664 126.974 31.7048C127.19 31.7262 127.437 31.7496 127.503 31.9907C127.565 32.2221 127.353 32.3466 127.188 32.4555C126.418 32.967 125.642 33.4706 124.868 33.9763C124.609 34.1455 124.341 34.301 124.092 34.4819C121.793 36.1583 117.974 36.3761 115.304 34.6453C114.989 34.4411 114.679 34.2271 114.374 34.0113C113.067 33.0895 112.264 31.8254 111.838 30.3007C111.799 30.1627 111.756 30.0265 111.7 29.8359C111.548 29.976 111.43 30.079 111.319 30.1899C110.226 31.2692 109.333 32.5119 108.417 33.7371C107.661 34.7464 106.92 35.7654 106.15 36.7631C105.526 37.576 104.779 38.2741 103.972 38.9003C103.616 39.1765 103.198 39.3748 102.807 39.6043C102.715 39.6588 102.612 39.6957 102.523 39.7521C101.442 40.4289 100.312 40.3822 99.1643 39.9621C98.896 39.8649 98.7346 39.6568 98.6081 39.3729C98.2017 38.4647 98.1706 37.5001 98.0967 36.5394C97.8244 32.9514 97.84 29.3556 97.8322 25.7598C97.8303 24.8224 97.8303 23.8831 97.8283 22.9438C97.8283 22.761 97.8186 22.5802 97.8147 22.3993C97.7855 22.3876 97.7583 22.3779 97.7291 22.3662ZM84.6061 24.7777C84.5575 24.9138 84.5166 25.015 84.4855 25.1161C83.9624 26.7924 83.6882 28.5077 83.7135 30.2618C83.731 31.5201 83.9799 32.7375 84.5128 33.8868C84.7578 34.4158 85.0709 34.8961 85.5221 35.2734C85.8916 35.5846 86.3019 35.7051 86.792 35.6137C87.5485 35.4737 88.2155 35.1489 88.8262 34.6997C90.1914 33.6982 91.0257 32.3291 91.4652 30.7247C91.6888 29.9137 91.8152 29.0736 91.9475 28.2413C92.0214 27.7687 92.0097 27.2864 91.9805 26.8022C89.2034 27.2436 86.7259 26.7322 84.6061 24.7777ZM116.865 26.6641C117.314 26.598 117.725 26.5435 118.131 26.4793C119.386 26.2849 120.587 25.9309 121.688 25.2833C122.721 24.6785 123.394 23.7976 123.738 22.656C124.144 21.3083 123.705 19.6631 122.1 18.926C121.655 18.7218 121.171 18.5954 120.694 18.4709C120.36 18.3834 120.018 18.4437 119.734 18.6518C118.995 19.1905 118.302 19.772 117.869 20.6101C117.476 21.3666 117.192 22.1504 117.05 22.9924C116.846 24.1865 116.786 25.3825 116.865 26.6641ZM91.8911 25.8084C91.8911 25.717 91.8988 25.6626 91.8911 25.61C91.7199 24.4529 91.4827 23.3114 91.0276 22.2282C90.6367 21.2927 90.1136 20.439 89.3843 19.7234C89.1004 19.4453 88.7756 19.2411 88.3905 19.138C87.9919 19.031 87.7002 19.1866 87.5465 19.5756C87.494 19.7078 87.4085 19.8381 87.3054 19.9353C87.1479 20.087 87.0623 20.264 87.0642 20.4701C87.0662 20.8163 87.0604 21.1683 87.1129 21.5106C87.2295 22.2748 87.5563 22.9691 87.9335 23.6381C88.4411 24.5385 89.1645 25.2172 90.0766 25.6995C90.6581 26.0087 91.2532 26.0087 91.8911 25.8084Z" fill="#FF1616"/>
<mask id="mask0_857_7468" style="mask-type:luminance" maskUnits="userSpaceOnUse" x="59" y="45" width="72" height="4">
<path d="M59.125 45.5337H130.938V48.3827H59.125V45.5337Z" fill="white"/>
</mask>
<g mask="url(#mask0_857_7468)">
<path d="M95.3318 47.084C92.1016 47.2007 88.8714 47.3076 85.6412 47.436C82.6541 47.5546 79.667 47.7063 76.6779 47.8288C73.8367 47.9474 70.9955 48.0447 68.1542 48.1536C66.332 48.2236 64.5098 48.3053 62.6856 48.3636C61.7891 48.3928 60.8868 48.42 60.0019 48.2216C59.7705 48.1691 59.5352 48.0894 59.329 47.9727C59.0762 47.8269 59.0782 47.6207 59.3329 47.4807C59.5274 47.3718 59.751 47.2862 59.9708 47.2571C61.1785 47.0859 62.3842 46.8759 63.5977 46.7923C66.1395 46.6134 68.6851 46.485 71.2308 46.3722C74.2859 46.238 77.343 46.1563 80.3982 46.026C89.0562 45.6585 97.718 45.4698 106.386 45.5846C110.127 45.6332 113.867 45.7577 117.609 45.8646C120.088 45.9366 122.568 46.0299 125.047 46.1291C126.694 46.1933 128.342 46.2808 129.989 46.3722C130.24 46.3858 130.492 46.4558 130.726 46.5472C130.844 46.5939 130.99 46.7436 130.992 46.8506C130.996 46.9556 130.858 47.1034 130.743 47.1657C130.397 47.3621 130.002 47.3971 129.613 47.401C128.594 47.4068 127.573 47.4165 126.556 47.399C122.84 47.3348 119.126 47.2532 115.411 47.1929C110.127 47.1054 104.843 46.9595 99.5577 47.0295C98.1497 47.049 96.7417 47.0801 95.3337 47.1054C95.3337 47.0976 95.3318 47.0918 95.3318 47.084Z" fill="#FF1616"/>
</g>
<path d="M45.055 17.1095C44.2577 17.1095 43.6121 17.7532 43.6121 18.5506V42.6185C43.6121 44.2113 42.3208 45.5026 40.728 45.5026H6.12158C4.53079 45.5026 3.23755 44.2113 3.23755 42.6185V8.01208C3.23755 6.42324 4.53079 5.12805 6.12158 5.12805H40.728C41.8521 5.12805 42.8808 5.78926 43.3476 6.81219C43.6782 7.53562 44.5358 7.85262 45.2612 7.52201C45.9846 7.18946 46.3036 6.33378 45.971 5.61034C45.0337 3.56449 42.9761 2.24402 40.728 2.24402H6.12158C2.94 2.24402 0.353516 4.83245 0.353516 8.01208V42.6185C0.353516 45.8001 2.94 48.3866 6.12158 48.3866H40.728C43.9115 48.3866 46.4961 45.8001 46.4961 42.6185V18.5506C46.4961 17.7532 45.8504 17.1095 45.055 17.1095Z" fill="#FF1616"/>
<path d="M51.6578 8.69104C51.6559 8.69104 51.65 8.69104 51.6461 8.69104C39.3321 9.77814 28.0741 16.5536 21.3356 26.8879L13.8523 18.2435C12.5474 16.7364 10.062 16.5536 8.55484 17.8643C6.99128 19.2179 6.8182 21.5943 8.17367 23.1618L21.1975 38.2023C21.3356 38.3618 21.534 38.4532 21.742 38.4532C21.7712 38.4532 21.7965 38.4493 21.8257 38.4473C22.061 38.4162 22.2691 38.2781 22.3799 38.0662C28.8384 25.8319 39.4119 16.1316 52.1576 10.7583C52.7021 10.5269 52.9608 9.89483 52.7294 9.34641C52.5679 8.94969 52.1809 8.69104 51.6578 8.69104Z" fill="#FF1616"/>
</svg>
