<svg width="37" height="32" viewBox="0 0 37 32" fill="none" xmlns="http://www.w3.org/2000/svg">
<path d="M16.6662 0.934448H15.7504C-0.634921 0.934448 0.782806 11.4639 0.782806 14.3038H31.6338C31.6338 11.4639 33.0537 0.934448 16.6662 0.934448ZM8.32493 10.0176L7.60727 12.2322L6.8874 10.0176H4.56047L6.4427 8.65049L5.72504 6.43584L7.60727 7.80514L9.4895 6.43805L8.76963 8.65049L10.6541 10.0176H8.32493ZM16.8555 10.0176L16.1378 12.2322L15.418 10.0176H13.091L14.9733 8.65049L14.2534 6.43584L16.1378 7.80514L18.0201 6.43805L17.3002 8.65049L19.1846 10.0176H16.8555ZM25.3861 10.0176L24.6662 12.2322L23.9485 10.0176H21.6216L23.5039 8.65049L22.784 6.43584L24.6684 7.80514L26.5506 6.43805L25.8308 8.65049L27.713 10.0176H25.3861Z" fill="white"/>
<path d="M36.6004 25.6917H33.6131V27.8513C33.6131 28.3973 33.1684 28.842 32.6224 28.842C32.0743 28.842 31.6318 28.3973 31.6318 27.8513V15.488H0.75V31.8139H8.38239V25.7798H17.9653V31.8733H25.1816V22.9993C25.1816 22.4534 25.6263 22.0087 26.1744 22.0087C26.7204 22.0087 27.1651 22.4534 27.1651 22.9993L27.1343 27.1557C27.1343 29.7776 29.2608 31.9042 31.8828 31.9042C34.5047 31.9042 36.6291 29.7776 36.6291 27.1557L36.6004 25.6917Z" fill="white"/>
</svg>
