<svg width="277" height="66" viewBox="0 0 277 66" fill="none" xmlns="http://www.w3.org/2000/svg">
<path d="M36.636 20.877H32.9337C32.7913 20.0859 32.5263 19.3897 32.1386 18.7885C31.751 18.1872 31.2763 17.677 30.7147 17.2577C30.153 16.8384 29.5241 16.522 28.8279 16.3084C28.1396 16.0948 27.4079 15.988 26.6326 15.988C25.2324 15.988 23.9785 16.34 22.8709 17.0441C21.7713 17.7482 20.9011 18.7806 20.2603 20.1412C19.6274 21.5019 19.311 23.1632 19.311 25.1251C19.311 27.1029 19.6274 28.7721 20.2603 30.1328C20.9011 31.4935 21.7753 32.5219 22.8828 33.218C23.9903 33.9142 25.2363 34.2623 26.6207 34.2623C27.3881 34.2623 28.1159 34.1595 28.8042 33.9538C29.5003 33.7402 30.1292 33.4277 30.6909 33.0163C31.2526 32.6049 31.7273 32.1026 32.1149 31.5093C32.5104 30.908 32.7834 30.2198 32.9337 29.4445L36.636 29.4564C36.4382 30.6509 36.0545 31.7506 35.485 32.7553C34.9233 33.752 34.1994 34.6143 33.3134 35.3421C32.4353 36.062 31.4306 36.6198 30.2993 37.0153C29.1681 37.4109 27.9339 37.6086 26.597 37.6086C24.4927 37.6086 22.6178 37.1102 20.9723 36.1135C19.3268 35.1088 18.0294 33.6729 17.0801 31.8059C16.1387 29.939 15.668 27.712 15.668 25.1251C15.668 22.5303 16.1427 20.3034 17.092 18.4443C18.0413 16.5774 19.3387 15.1455 20.9842 14.1487C22.6297 13.144 24.5006 12.6417 26.597 12.6417C27.8865 12.6417 29.0889 12.8276 30.2044 13.1994C31.3277 13.5633 32.3364 14.1012 33.2303 14.8132C34.1243 15.5173 34.8639 16.3796 35.4494 17.4001C36.0348 18.4127 36.4303 19.5716 36.636 20.877ZM42.9133 37.2764H39.0212L47.7667 12.9739H52.003L60.7486 37.2764H56.8564L49.9857 17.3882H49.7959L42.9133 37.2764ZM43.566 27.7595H56.1919V30.8448H43.566V27.7595ZM64.2581 12.9739H68.708L76.4449 31.8653H76.7297L84.4666 12.9739H88.9165V37.2764H85.4278V19.6903H85.2023L78.035 37.2408H75.1396L67.9723 19.6784H67.7468V37.2764H64.2581V12.9739ZM94.2475 37.2764V12.9739H102.91C104.801 12.9739 106.367 13.318 107.609 14.0063C108.851 14.6945 109.781 15.6359 110.398 16.8305C111.015 18.0171 111.323 19.3541 111.323 20.8414C111.323 22.3365 111.011 23.6814 110.386 24.8759C109.769 26.0626 108.835 27.004 107.585 27.7002C106.343 28.3884 104.781 28.7325 102.898 28.7325H96.9412V25.6235H102.566C103.76 25.6235 104.73 25.4178 105.473 25.0065C106.217 24.5872 106.763 24.0176 107.111 23.2977C107.459 22.5778 107.633 21.759 107.633 20.8414C107.633 19.9237 107.459 19.1089 107.111 18.3969C106.763 17.6849 106.213 17.1272 105.461 16.7237C104.718 16.3202 103.737 16.1185 102.518 16.1185H97.9143V37.2764H94.2475ZM115.097 37.2764H111.205L119.95 12.9739H124.187L132.932 37.2764H129.04L122.169 17.3882H121.979L115.097 37.2764ZM115.75 27.7595H128.375V30.8448H115.75V27.7595ZM140.108 12.9739V37.2764H136.442V12.9739H140.108ZM161.895 20.6515C161.666 19.9316 161.357 19.2869 160.97 18.7173C160.59 18.1398 160.135 17.6493 159.605 17.2458C159.075 16.8345 158.47 16.522 157.789 16.3084C157.117 16.0948 156.377 15.988 155.57 15.988C154.202 15.988 152.968 16.34 151.868 17.0441C150.768 17.7482 149.898 18.7806 149.257 20.1412C148.624 21.494 148.308 23.1514 148.308 25.1133C148.308 27.0831 148.628 28.7484 149.269 30.109C149.91 31.4697 150.788 32.5021 151.904 33.2062C153.019 33.9103 154.289 34.2623 155.713 34.2623C157.034 34.2623 158.185 33.9933 159.166 33.4554C160.155 32.9174 160.918 32.158 161.456 31.177C162.002 30.1882 162.275 29.0252 162.275 27.6883L163.224 27.8663H156.27V24.8403H165.823V27.6052C165.823 29.6463 165.388 31.4183 164.518 32.9214C163.655 34.4166 162.461 35.5716 160.934 36.3864C159.415 37.2012 157.675 37.6086 155.713 37.6086C153.513 37.6086 151.583 37.1023 149.922 36.0897C148.268 35.0771 146.979 33.6413 146.053 31.7822C145.128 29.9152 144.665 27.7002 144.665 25.137C144.665 23.1988 144.934 21.4584 145.472 19.9158C146.01 18.3731 146.765 17.0639 147.738 15.988C148.719 14.9042 149.87 14.0775 151.192 13.5079C152.521 12.9304 153.972 12.6417 155.547 12.6417C156.86 12.6417 158.082 12.8355 159.213 13.2231C160.352 13.6107 161.365 14.1606 162.251 14.8725C163.145 15.5845 163.885 16.431 164.47 17.412C165.056 18.385 165.451 19.4649 165.657 20.6515H161.895ZM190.093 12.9739V37.2764H186.723L174.37 19.453H174.144V37.2764H170.477V12.9739H173.871L186.236 30.821H186.462V12.9739H190.093ZM195.442 37.2764V12.9739H204.341C206.066 12.9739 207.494 13.2587 208.625 13.8283C209.756 14.39 210.603 15.1534 211.165 16.1185C211.726 17.0757 212.007 18.1556 212.007 19.3581C212.007 20.3707 211.821 21.225 211.449 21.9212C211.078 22.6095 210.579 23.1632 209.954 23.5825C209.337 23.9939 208.657 24.2945 207.913 24.4844V24.7217C208.72 24.7612 209.507 25.0223 210.275 25.5049C211.05 25.9795 211.691 26.6559 212.197 27.534C212.703 28.4121 212.956 29.4801 212.956 30.738C212.956 31.98 212.664 33.0954 212.078 34.0843C211.501 35.0653 210.607 35.8445 209.396 36.422C208.186 36.9916 206.639 37.2764 204.757 37.2764H195.442ZM199.108 34.1318H204.401C206.157 34.1318 207.415 33.7916 208.174 33.1112C208.934 32.4309 209.313 31.5805 209.313 30.56C209.313 29.7926 209.12 29.0885 208.732 28.4477C208.344 27.807 207.791 27.2967 207.071 26.917C206.359 26.5372 205.512 26.3474 204.531 26.3474H199.108V34.1318ZM199.108 23.4876H204.021C204.844 23.4876 205.583 23.3294 206.24 23.0129C206.904 22.6965 207.431 22.2535 207.818 21.6839C208.214 21.1064 208.412 20.426 208.412 19.6428C208.412 18.6382 208.059 17.7956 207.355 17.1153C206.651 16.435 205.571 16.0948 204.116 16.0948H199.108V23.4876ZM238.416 25.1251C238.416 27.7199 237.941 29.9508 236.992 31.8178C236.042 33.6769 234.741 35.1088 233.088 36.1135C231.442 37.1102 229.571 37.6086 227.475 37.6086C225.371 37.6086 223.492 37.1102 221.838 36.1135C220.193 35.1088 218.896 33.6729 217.946 31.8059C216.997 29.939 216.522 27.712 216.522 25.1251C216.522 22.5303 216.997 20.3034 217.946 18.4443C218.896 16.5774 220.193 15.1455 221.838 14.1487C223.492 13.144 225.371 12.6417 227.475 12.6417C229.571 12.6417 231.442 13.144 233.088 14.1487C234.741 15.1455 236.042 16.5774 236.992 18.4443C237.941 20.3034 238.416 22.5303 238.416 25.1251ZM234.785 25.1251C234.785 23.1474 234.464 21.4821 233.823 20.1294C233.191 18.7687 232.32 17.7403 231.213 17.0441C230.113 16.34 228.867 15.988 227.475 15.988C226.075 15.988 224.825 16.34 223.725 17.0441C222.626 17.7403 221.755 18.7687 221.115 20.1294C220.482 21.4821 220.165 23.1474 220.165 25.1251C220.165 27.1029 220.482 28.7721 221.115 30.1328C221.755 31.4855 222.626 32.514 223.725 33.218C224.825 33.9142 226.075 34.2623 227.475 34.2623C228.867 34.2623 230.113 33.9142 231.213 33.218C232.32 32.514 233.191 31.4855 233.823 30.1328C234.464 28.7721 234.785 27.1029 234.785 25.1251ZM244.886 12.9739L250.701 22.4789H250.89L256.705 12.9739H260.953L253.382 25.1251L261.001 37.2764H256.729L250.89 27.9019H250.701L244.862 37.2764H240.59L248.339 25.1251L240.638 12.9739H244.886Z" fill="white"/>
<path d="M266.669 51.2121H32.5874C28.6886 51.2121 24.8808 52.3901 21.663 54.5917L9.89453 62.6438V51.2121" stroke="white" stroke-width="3.51746"/>
</svg>
