<svg width="203" height="246" viewBox="0 0 203 246" fill="none" xmlns="http://www.w3.org/2000/svg">
<path d="M97.7291 22.3662C96.6362 24.0115 95.2224 25.295 93.4468 26.1915C93.4468 26.3646 93.4332 26.5357 93.4488 26.7049C93.6802 29.3264 92.9918 31.7398 91.716 33.9899C90.6542 35.8568 88.9428 36.8058 86.8484 37.1053C85.5687 37.2901 84.3086 37.189 83.0639 36.8409C80.3238 36.0707 78.2818 33.5757 78.3168 30.6177C78.3441 28.1518 78.7855 25.7578 79.9524 23.5506C80.3841 22.7357 80.8722 21.9462 81.374 21.1702C82.2802 19.77 83.6318 19.0835 85.2459 18.8404C85.4132 18.8152 85.5862 18.7685 85.7379 18.6965C87.7643 17.7281 89.8977 18.2142 91.294 19.9742C92.2489 21.178 92.7876 22.5704 93.1007 24.0582C93.1804 24.4471 93.2465 24.8399 93.3243 25.2619C93.4663 25.1939 93.5752 25.1491 93.6783 25.0947C95.4188 24.1554 96.6809 22.7338 97.6825 21.0613C97.7758 20.9038 97.7875 20.6782 97.7875 20.4837C97.7778 18.5254 97.7564 16.5671 97.7427 14.6087C97.7369 13.7239 97.7427 12.8371 97.7427 11.9522C97.7447 11.8219 97.7427 11.6897 97.7427 11.5341C97.5852 11.5341 97.4666 11.5283 97.3499 11.536C96.3211 11.6022 95.2904 11.6683 94.2597 11.7422C92.5756 11.8647 90.8895 11.995 89.2054 12.1156C88.5364 12.1622 87.8635 12.17 87.1965 12.2264C86.1288 12.3159 85.0631 12.4384 83.9935 12.5317C83.5948 12.5668 83.1923 12.5648 82.7936 12.5609C82.6614 12.5609 82.5291 12.5142 82.4027 12.4715C82.1966 12.3976 81.9924 12.3003 81.9496 12.0592C81.9049 11.8141 82.0682 11.6508 82.2491 11.5302C82.4475 11.398 82.6575 11.2618 82.8831 11.1899C83.4432 11.009 84.0052 10.8107 84.5828 10.7154C85.8916 10.4956 87.2062 10.3128 88.5228 10.1475C91.4904 9.77412 94.4775 9.60687 97.4627 9.40851C97.5522 9.40073 97.6436 9.37934 97.7544 9.35989C97.7641 9.2296 97.7758 9.11291 97.7797 8.99428C97.8322 7.66798 97.8672 6.34168 97.9411 5.01537C97.9994 4.01189 98.087 3.00841 98.4059 2.04188C98.4681 1.8513 98.5284 1.65682 98.6159 1.47791C98.7151 1.27371 98.8298 1.07535 98.9621 0.892546C99.5144 0.136047 101.607 0.036865 102.194 1.12202C102.517 1.71906 102.743 2.35109 102.83 3.01619C102.97 4.07996 103.075 5.14761 103.155 6.21721C103.221 7.05928 103.227 7.90524 103.262 8.74925C103.266 8.85426 103.285 8.95734 103.299 9.06041C103.68 9.06041 104.04 9.07013 104.4 9.05846C107.655 8.94178 110.907 8.65979 114.168 8.68896C115.59 8.70257 117.011 8.77842 118.431 8.8212C119.745 8.8601 121.06 8.88927 122.373 8.93011C122.789 8.94372 123.205 8.96317 123.617 9.01568C123.851 9.04485 124.094 9.11291 124.304 9.21987C124.631 9.38517 124.638 9.64771 124.323 9.82663C124.119 9.94137 123.88 10.023 123.647 10.0581C123.17 10.13 122.688 10.1806 122.207 10.2059C120.988 10.27 119.767 10.307 118.549 10.3712C115.617 10.5248 112.684 10.6862 109.751 10.8437C108.05 10.9351 106.35 11.0265 104.648 11.1199C104.225 11.1432 103.799 11.1724 103.353 11.1996C103.346 11.3318 103.334 11.4349 103.334 11.5399C103.346 15.55 103.359 19.5619 103.369 23.572C103.379 26.631 103.406 29.6881 103.377 32.7472C103.363 34.2621 103.24 35.7751 103.169 37.2881C103.161 37.4301 103.167 37.5721 103.167 37.7996C103.342 37.6285 103.468 37.5176 103.583 37.3951C104.452 36.4772 105.179 35.4465 105.928 34.4313C106.819 33.2237 107.717 32.0179 108.637 30.8316C109.357 29.9021 110.207 29.1028 111.231 28.5116C111.439 28.391 111.484 28.249 111.471 28.0235C111.406 26.95 111.397 25.8745 111.618 24.8166C112.132 22.3643 113.304 20.3048 115.335 18.7938C116.375 18.0178 117.528 17.4597 118.837 17.2613C120.622 16.9891 122.283 17.3391 123.824 18.2492C124.691 18.7607 125.317 19.5017 125.447 20.5324C125.694 22.4907 125.025 24.0912 123.437 25.2794C122.874 25.7014 122.239 25.9912 121.589 26.2479C120.294 26.7594 118.938 27.0122 117.569 27.2047C117.371 27.2339 117.173 27.2631 116.922 27.3C116.929 27.4712 116.926 27.6403 116.949 27.8076C117.128 29.1164 117.482 30.3805 117.976 31.6018C118.339 32.4983 118.907 33.2548 119.623 33.9063C119.985 34.2349 120.372 34.3691 120.836 34.1902C121.398 33.9724 121.968 33.774 122.513 33.5193C123.604 33.0039 124.677 32.4535 125.76 31.9246C126.142 31.7379 126.548 31.664 126.974 31.7048C127.19 31.7262 127.437 31.7496 127.503 31.9907C127.565 32.2221 127.353 32.3466 127.188 32.4555C126.418 32.967 125.642 33.4706 124.868 33.9763C124.609 34.1455 124.341 34.301 124.092 34.4819C121.793 36.1583 117.974 36.3761 115.304 34.6453C114.989 34.4411 114.679 34.2271 114.374 34.0113C113.067 33.0895 112.264 31.8254 111.838 30.3007C111.799 30.1627 111.756 30.0265 111.7 29.8359C111.548 29.976 111.43 30.079 111.319 30.1899C110.226 31.2692 109.333 32.5119 108.417 33.7371C107.661 34.7464 106.92 35.7654 106.15 36.7631C105.526 37.576 104.779 38.2741 103.972 38.9003C103.616 39.1765 103.198 39.3748 102.807 39.6043C102.715 39.6588 102.612 39.6957 102.523 39.7521C101.442 40.4289 100.312 40.3822 99.1643 39.9621C98.896 39.8649 98.7346 39.6568 98.6081 39.3729C98.2017 38.4647 98.1706 37.5001 98.0967 36.5394C97.8244 32.9514 97.84 29.3556 97.8322 25.7598C97.8303 24.8224 97.8303 23.8831 97.8283 22.9438C97.8283 22.761 97.8186 22.5802 97.8147 22.3993C97.7855 22.3876 97.7583 22.3779 97.7291 22.3662ZM84.6061 24.7777C84.5575 24.9138 84.5166 25.015 84.4855 25.1161C83.9624 26.7924 83.6882 28.5077 83.7135 30.2618C83.731 31.5201 83.9799 32.7375 84.5128 33.8868C84.7578 34.4158 85.0709 34.8961 85.5221 35.2734C85.8916 35.5846 86.3019 35.7051 86.792 35.6137C87.5485 35.4737 88.2155 35.1489 88.8262 34.6997C90.1914 33.6982 91.0257 32.3291 91.4652 30.7247C91.6888 29.9137 91.8152 29.0736 91.9475 28.2413C92.0214 27.7687 92.0097 27.2864 91.9805 26.8022C89.2034 27.2436 86.7259 26.7322 84.6061 24.7777ZM116.865 26.6641C117.314 26.598 117.725 26.5435 118.131 26.4793C119.386 26.2849 120.587 25.9309 121.688 25.2833C122.721 24.6785 123.394 23.7976 123.738 22.656C124.144 21.3083 123.705 19.6631 122.1 18.926C121.655 18.7218 121.171 18.5954 120.694 18.4709C120.36 18.3834 120.018 18.4437 119.734 18.6518C118.995 19.1905 118.302 19.772 117.869 20.6101C117.476 21.3666 117.192 22.1504 117.05 22.9924C116.846 24.1865 116.786 25.3825 116.865 26.6641ZM91.8911 25.8084C91.8911 25.717 91.8988 25.6626 91.8911 25.61C91.7199 24.4529 91.4827 23.3114 91.0276 22.2282C90.6367 21.2927 90.1136 20.439 89.3843 19.7234C89.1004 19.4453 88.7756 19.2411 88.3905 19.138C87.9919 19.031 87.7002 19.1866 87.5465 19.5756C87.494 19.7078 87.4085 19.8381 87.3054 19.9353C87.1479 20.087 87.0623 20.264 87.0642 20.4701C87.0662 20.8163 87.0604 21.1683 87.1129 21.5106C87.2295 22.2748 87.5563 22.9691 87.9335 23.6381C88.4411 24.5385 89.1645 25.2172 90.0766 25.6995C90.6581 26.0087 91.2532 26.0087 91.8911 25.8084Z" fill="#FF1616"/>
<mask id="mask0_857_7467" style="mask-type:luminance" maskUnits="userSpaceOnUse" x="59" y="45" width="72" height="4">
<path d="M59.125 45.5337H130.938V48.3827H59.125V45.5337Z" fill="white"/>
</mask>
<g mask="url(#mask0_857_7467)">
<path d="M95.3318 47.084C92.1016 47.2007 88.8714 47.3076 85.6412 47.436C82.6541 47.5546 79.667 47.7063 76.6779 47.8288C73.8367 47.9474 70.9955 48.0447 68.1542 48.1536C66.332 48.2236 64.5098 48.3053 62.6856 48.3636C61.7891 48.3928 60.8868 48.42 60.0019 48.2216C59.7705 48.1691 59.5352 48.0894 59.329 47.9727C59.0762 47.8269 59.0782 47.6207 59.3329 47.4807C59.5274 47.3718 59.751 47.2862 59.9708 47.2571C61.1785 47.0859 62.3842 46.8759 63.5977 46.7923C66.1395 46.6134 68.6851 46.485 71.2308 46.3722C74.2859 46.238 77.343 46.1563 80.3982 46.026C89.0562 45.6585 97.718 45.4698 106.386 45.5846C110.127 45.6332 113.867 45.7577 117.609 45.8646C120.088 45.9366 122.568 46.0299 125.047 46.1291C126.694 46.1933 128.342 46.2808 129.989 46.3722C130.24 46.3858 130.492 46.4558 130.726 46.5472C130.844 46.5939 130.99 46.7436 130.992 46.8506C130.996 46.9556 130.858 47.1034 130.743 47.1657C130.397 47.3621 130.002 47.3971 129.613 47.401C128.594 47.4068 127.573 47.4165 126.556 47.399C122.84 47.3348 119.126 47.2532 115.411 47.1929C110.127 47.1054 104.843 46.9595 99.5577 47.0295C98.1497 47.049 96.7417 47.0801 95.3337 47.1054C95.3337 47.0976 95.3318 47.0918 95.3318 47.084Z" fill="#FF1616"/>
</g>
<path d="M45.055 17.1095C44.2577 17.1095 43.6121 17.7532 43.6121 18.5506V42.6185C43.6121 44.2113 42.3208 45.5026 40.728 45.5026H6.12158C4.53079 45.5026 3.23755 44.2113 3.23755 42.6185V8.01208C3.23755 6.42324 4.53079 5.12805 6.12158 5.12805H40.728C41.8521 5.12805 42.8808 5.78926 43.3476 6.81219C43.6782 7.53562 44.5358 7.85262 45.2612 7.52201C45.9846 7.18946 46.3036 6.33378 45.971 5.61034C45.0337 3.56449 42.9761 2.24402 40.728 2.24402H6.12158C2.94 2.24402 0.353516 4.83245 0.353516 8.01208V42.6185C0.353516 45.8001 2.94 48.3866 6.12158 48.3866H40.728C43.9115 48.3866 46.4961 45.8001 46.4961 42.6185V18.5506C46.4961 17.7532 45.8504 17.1095 45.055 17.1095Z" fill="#FF1616"/>
<path d="M51.6578 8.69104C51.6559 8.69104 51.65 8.69104 51.6461 8.69104C39.3321 9.77814 28.0741 16.5536 21.3356 26.8879L13.8523 18.2435C12.5474 16.7364 10.062 16.5536 8.55484 17.8643C6.99128 19.2179 6.8182 21.5943 8.17367 23.1618L21.1975 38.2023C21.3356 38.3618 21.534 38.4532 21.742 38.4532C21.7712 38.4532 21.7965 38.4493 21.8257 38.4473C22.061 38.4162 22.2691 38.2781 22.3799 38.0662C28.8384 25.8319 39.4119 16.1316 52.1576 10.7583C52.7021 10.5269 52.9608 9.89483 52.7294 9.34641C52.5679 8.94969 52.1809 8.69104 51.6578 8.69104Z" fill="#FF1616"/>
<path d="M13.5565 96.6094H2.24786V67.2184H13.4417C16.465 67.2184 19.0769 67.8068 21.2774 68.9836C23.4874 70.1508 25.1904 71.8346 26.3864 74.0351C27.5919 76.2261 28.1946 78.8523 28.1946 81.9139C28.1946 84.9754 27.5966 87.6065 26.4007 89.807C25.2048 91.9979 23.5114 93.6818 21.3204 94.8585C19.1295 96.0258 16.5415 96.6094 13.5565 96.6094ZM10.2271 89.8357H13.2695C14.7237 89.8357 15.9627 89.6013 16.9864 89.1325C18.0197 88.6637 18.8042 87.8552 19.34 86.7071C19.8853 85.559 20.158 83.9613 20.158 81.9139C20.158 79.8665 19.8805 78.2687 19.3256 77.1206C18.7803 75.9725 17.9766 75.1641 16.9147 74.6953C15.8622 74.2265 14.5706 73.9921 13.0399 73.9921H10.2271V89.8357ZM37.6663 96.6094H29.0557L38.757 67.2184H49.6638L59.3651 96.6094H50.7545L44.3252 75.3124H44.0956L37.6663 96.6094ZM36.059 85.0137H52.247V90.9838H36.059V85.0137ZM65.9702 67.2184L71.9977 87.9413H72.2273L78.2547 67.2184H87.2672L77.5659 96.6094H66.6591L56.9577 67.2184H65.9702ZM98.0772 67.2184V96.6094H90.098V67.2184H98.0772ZM113.167 96.6094H101.859V67.2184H113.052C116.076 67.2184 118.688 67.8068 120.888 68.9836C123.098 70.1508 124.801 71.8346 125.997 74.0351C127.203 76.2261 127.805 78.8523 127.805 81.9139C127.805 84.9754 127.207 87.6065 126.012 89.807C124.816 91.9979 123.122 93.6818 120.931 94.8585C118.74 96.0258 116.152 96.6094 113.167 96.6094ZM109.838 89.8357H112.88C114.335 89.8357 115.574 89.6013 116.597 89.1325C117.63 88.6637 118.415 87.8552 118.951 86.7071C119.496 85.559 119.769 83.9613 119.769 81.9139C119.769 79.8665 119.491 78.2687 118.936 77.1206C118.391 75.9725 117.587 75.1641 116.525 74.6953C115.473 74.2265 114.181 73.9921 112.651 73.9921H109.838V89.8357Z" fill="#102957"/>
<path d="M14.3602 113.764H22.2246V133.913C22.215 135.826 21.7318 137.51 20.7751 138.965C19.8279 140.409 18.5172 141.538 16.8429 142.351C15.1782 143.155 13.2599 143.557 11.0881 143.557C9.20334 143.557 7.48122 143.232 5.92173 142.581C4.36225 141.921 3.11849 140.888 2.19045 139.481C1.26242 138.065 0.803183 136.228 0.81275 133.97H8.79195C8.82065 134.707 8.94503 135.329 9.16508 135.836C9.39469 136.343 9.71042 136.726 10.1122 136.984C10.5236 137.233 11.0211 137.357 11.6048 137.357C12.1979 137.357 12.6954 137.228 13.0973 136.97C13.5087 136.711 13.8196 136.329 14.0301 135.822C14.2406 135.305 14.3506 134.669 14.3602 133.913V113.764ZM54.4786 128.46C54.4786 131.732 53.8424 134.492 52.5699 136.74C51.2974 138.979 49.5801 140.677 47.4179 141.835C45.2556 142.983 42.8447 143.557 40.1849 143.557C37.5061 143.557 35.0855 142.978 32.9233 141.82C30.7706 140.653 29.0581 138.95 27.7856 136.711C26.5227 134.463 25.8913 131.712 25.8913 128.46C25.8913 125.187 26.5227 122.432 27.7856 120.193C29.0581 117.945 30.7706 116.247 32.9233 115.099C35.0855 113.941 37.5061 113.362 40.1849 113.362C42.8447 113.362 45.2556 113.941 47.4179 115.099C49.5801 116.247 51.2974 117.945 52.5699 120.193C53.8424 122.432 54.4786 125.187 54.4786 128.46ZM46.2698 128.46C46.2698 126.699 46.0354 125.216 45.5666 124.011C45.1073 122.796 44.4233 121.877 43.5144 121.255C42.615 120.624 41.5052 120.308 40.1849 120.308C38.8646 120.308 37.75 120.624 36.8411 121.255C35.9418 121.877 35.2577 122.796 34.7889 124.011C34.3297 125.216 34.1001 126.699 34.1001 128.46C34.1001 130.22 34.3297 131.708 34.7889 132.923C35.2577 134.128 35.9418 135.047 36.8411 135.678C37.75 136.3 38.8646 136.611 40.1849 136.611C41.5052 136.611 42.615 136.3 43.5144 135.678C44.4233 135.047 45.1073 134.128 45.5666 132.923C46.0354 131.708 46.2698 130.22 46.2698 128.46ZM58.1704 143.155V113.764H66.1496V125.245H76.712V113.764H84.6912V143.155H76.712V131.674H66.1496V143.155H58.1704ZM113.91 113.764V143.155H107.251L96.6313 127.713H96.4591V143.155H88.4799V113.764H95.2536L105.701 129.148H105.931V113.764H113.91ZM133.528 122.949C133.451 121.992 133.093 121.246 132.452 120.71C131.82 120.174 130.859 119.906 129.567 119.906C128.744 119.906 128.07 120.007 127.543 120.208C127.027 120.399 126.644 120.662 126.395 120.997C126.147 121.332 126.017 121.715 126.008 122.145C125.989 122.499 126.051 122.82 126.194 123.107C126.348 123.384 126.587 123.638 126.912 123.867C127.237 124.087 127.654 124.288 128.161 124.47C128.668 124.652 129.27 124.814 129.969 124.958L132.38 125.475C134.006 125.819 135.398 126.273 136.556 126.838C137.714 127.402 138.661 128.067 139.397 128.833C140.134 129.588 140.675 130.44 141.019 131.387C141.373 132.334 141.555 133.368 141.564 134.487C141.555 136.42 141.072 138.056 140.115 139.395C139.158 140.734 137.79 141.753 136.011 142.452C134.241 143.15 132.112 143.499 129.624 143.499C127.07 143.499 124.841 143.122 122.937 142.366C121.042 141.61 119.569 140.447 118.517 138.878C117.474 137.3 116.948 135.281 116.938 132.822H124.515C124.563 133.722 124.788 134.477 125.19 135.09C125.592 135.702 126.156 136.166 126.883 136.482C127.62 136.798 128.495 136.955 129.51 136.955C130.361 136.955 131.074 136.85 131.648 136.64C132.222 136.429 132.657 136.137 132.954 135.764C133.25 135.391 133.404 134.965 133.413 134.487C133.404 134.037 133.255 133.645 132.968 133.31C132.691 132.966 132.232 132.66 131.59 132.392C130.949 132.114 130.084 131.856 128.993 131.617L126.065 130.985C123.463 130.421 121.411 129.478 119.909 128.158C118.416 126.828 117.675 125.015 117.684 122.719C117.675 120.853 118.172 119.222 119.177 117.825C120.191 116.419 121.593 115.324 123.382 114.539C125.18 113.754 127.242 113.362 129.567 113.362C131.94 113.362 133.992 113.759 135.724 114.553C137.455 115.347 138.79 116.467 139.728 117.911C140.675 119.347 141.153 121.026 141.163 122.949H133.528ZM173.072 128.46C173.072 131.732 172.436 134.492 171.164 136.74C169.891 138.979 168.174 140.677 166.012 141.835C163.849 142.983 161.438 143.557 158.779 143.557C156.1 143.557 153.679 142.978 151.517 141.82C149.364 140.653 147.652 138.95 146.379 136.711C145.116 134.463 144.485 131.712 144.485 128.46C144.485 125.187 145.116 122.432 146.379 120.193C147.652 117.945 149.364 116.247 151.517 115.099C153.679 113.941 156.1 113.362 158.779 113.362C161.438 113.362 163.849 113.941 166.012 115.099C168.174 116.247 169.891 117.945 171.164 120.193C172.436 122.432 173.072 125.187 173.072 128.46ZM164.863 128.46C164.863 126.699 164.629 125.216 164.16 124.011C163.701 122.796 163.017 121.877 162.108 121.255C161.209 120.624 160.099 120.308 158.779 120.308C157.458 120.308 156.344 120.624 155.435 121.255C154.535 121.877 153.851 122.796 153.383 124.011C152.923 125.216 152.694 126.699 152.694 128.46C152.694 130.22 152.923 131.708 153.383 132.923C153.851 134.128 154.535 135.047 155.435 135.678C156.344 136.3 157.458 136.611 158.779 136.611C160.099 136.611 161.209 136.3 162.108 135.678C163.017 135.047 163.701 134.128 164.16 132.923C164.629 131.708 164.863 130.22 164.863 128.46ZM202.194 113.764V143.155H195.535L184.916 127.713H184.743V143.155H176.764V113.764H183.538L193.985 129.148H194.215V113.764H202.194Z" fill="#102957"/>
<mask id="mask1_857_7467" style="mask-type:luminance" maskUnits="userSpaceOnUse" x="0" y="161" width="190" height="85">
<path d="M0.353516 161.631H189.433V245.233H0.353516V161.631Z" fill="white"/>
</mask>
<g mask="url(#mask1_857_7467)">
<mask id="mask2_857_7467" style="mask-type:luminance" maskUnits="userSpaceOnUse" x="0" y="161" width="190" height="85">
<path d="M141.965 161.631H0.353516V245.233H141.965L189.169 203.433L141.965 161.631Z" fill="white"/>
</mask>
<g mask="url(#mask2_857_7467)">
<path d="M0.353516 161.631H189.107V245.233H0.353516V161.631Z" fill="#102957"/>
</g>
</g>
<path d="M9.09061 188.631V174.875H14.0329V175.843H10.3814V181.023H13.4215V181.974H10.3814V188.631H9.09061ZM18.9028 188.801C17.9857 188.801 17.2667 188.626 16.7459 188.275C16.2364 187.912 15.8741 187.414 15.6589 186.78C15.4551 186.135 15.3532 185.399 15.3532 184.572V178.866C15.3532 178.028 15.4608 177.303 15.6759 176.692C15.9024 176.069 16.2703 175.588 16.7799 175.248C17.3007 174.908 18.0084 174.739 18.9028 174.739C19.786 174.739 20.4823 174.908 20.9918 175.248C21.5127 175.588 21.8806 176.069 22.0958 176.692C22.3109 177.303 22.4185 178.028 22.4185 178.866V184.589C22.4185 185.416 22.3109 186.146 22.0958 186.78C21.892 187.403 21.5353 187.895 21.0258 188.258C20.5163 188.62 19.8086 188.801 18.9028 188.801ZM18.9028 187.765C19.5029 187.765 19.9615 187.646 20.2785 187.409C20.5955 187.159 20.8107 186.82 20.9239 186.389C21.0484 185.948 21.1107 185.438 21.1107 184.861V178.628C21.1107 178.05 21.0484 177.547 20.9239 177.116C20.8107 176.686 20.5955 176.358 20.2785 176.131C19.9615 175.894 19.5029 175.775 18.9028 175.775C18.2914 175.775 17.8215 175.894 17.4932 176.131C17.1761 176.358 16.9554 176.686 16.8308 177.116C16.7176 177.547 16.661 178.05 16.661 178.628V184.861C16.661 185.438 16.7176 185.948 16.8308 186.389C16.9554 186.82 17.1761 187.159 17.4932 187.409C17.8215 187.646 18.2914 187.765 18.9028 187.765ZM24.565 188.631V174.875H27.6731C28.5336 174.875 29.2073 175.016 29.6941 175.299C30.1923 175.571 30.549 175.973 30.7641 176.505C30.9792 177.026 31.0868 177.649 31.0868 178.373C31.0868 178.883 31.0302 179.364 30.917 179.817C30.8037 180.27 30.6113 180.655 30.3395 180.972C30.0678 181.289 29.6828 181.498 29.1846 181.6L31.2906 188.631H30.0338L28.0127 181.872H25.8558V188.631H24.565ZM25.8558 180.921H27.6051C28.1826 180.921 28.6298 180.824 28.9468 180.632C29.2639 180.44 29.4903 180.156 29.6262 179.783C29.7621 179.409 29.83 178.939 29.83 178.373C29.83 177.524 29.6828 176.89 29.3884 176.471C29.094 176.052 28.5109 175.843 27.6391 175.843H25.8558V180.921Z" fill="white"/>
<path d="M8.89383 208.938V195.606H14.4014C15.3996 195.606 16.2611 195.801 16.9859 196.191C17.715 196.578 18.2771 197.118 18.672 197.812C19.067 198.503 19.2644 199.305 19.2644 200.221C19.2644 201.141 19.0626 201.946 18.659 202.636C18.2597 203.322 17.689 203.854 16.9468 204.231C16.2047 204.609 15.3236 204.798 14.3037 204.798H10.9055V202.259H13.7048C14.1909 202.259 14.5967 202.174 14.9222 202.005C15.252 201.836 15.5016 201.599 15.6709 201.295C15.8401 200.987 15.9247 200.629 15.9247 200.221C15.9247 199.809 15.8401 199.453 15.6709 199.154C15.5016 198.85 15.252 198.615 14.9222 198.45C14.5923 198.286 14.1865 198.203 13.7048 198.203H12.1163V208.938H8.89383ZM20.8529 208.938V195.606H26.3605C27.3587 195.606 28.2202 195.786 28.945 196.146C29.6741 196.502 30.2361 197.014 30.6311 197.682C31.026 198.346 31.2235 199.134 31.2235 200.045C31.2235 200.97 31.0217 201.755 30.6181 202.402C30.2144 203.044 29.6415 203.535 28.8994 203.873C28.1572 204.208 27.2784 204.375 26.2628 204.375H22.7799V201.836H25.6639C26.15 201.836 26.5558 201.773 26.8813 201.647C27.2111 201.517 27.4607 201.321 27.6299 201.061C27.7992 200.796 27.8838 200.458 27.8838 200.045C27.8838 199.633 27.7992 199.292 27.6299 199.023C27.4607 198.75 27.2111 198.546 26.8813 198.411C26.5514 198.273 26.1456 198.203 25.6639 198.203H24.0754V208.938H20.8529ZM28.3591 202.845L31.6792 208.938H28.1638L24.9087 202.845H28.3591ZM32.991 208.938V195.606H42.2874V198.223H36.2135V200.957H41.8122V203.58H36.2135V206.321H42.2874V208.938H32.991ZM56.4078 200.436H53.1528C53.1094 200.102 53.0204 199.8 52.8859 199.531C52.7513 199.262 52.5734 199.032 52.3521 198.841C52.1307 198.65 51.8681 198.505 51.5643 198.405C51.2649 198.301 50.9328 198.249 50.5683 198.249C49.9216 198.249 49.3639 198.407 48.8952 198.724C48.4308 199.041 48.0727 199.499 47.821 200.098C47.5736 200.696 47.4499 201.421 47.4499 202.272C47.4499 203.157 47.5758 203.899 47.8275 204.498C48.0836 205.093 48.4416 205.542 48.9017 205.846C49.3661 206.145 49.9151 206.295 50.5488 206.295C50.9046 206.295 51.228 206.25 51.5188 206.158C51.8139 206.067 52.0721 205.935 52.2935 205.761C52.5191 205.583 52.7036 205.369 52.8468 205.117C52.9944 204.861 53.0964 204.572 53.1528 204.251L56.4078 204.27C56.3514 204.861 56.18 205.442 55.8936 206.015C55.6114 206.588 55.223 207.111 54.7282 207.584C54.2335 208.053 53.6302 208.426 52.9184 208.704C52.211 208.982 51.3994 209.121 50.4837 209.121C49.2771 209.121 48.1964 208.856 47.2416 208.326C46.2911 207.792 45.5403 207.016 44.9891 205.996C44.4379 204.976 44.1623 203.734 44.1623 202.272C44.1623 200.805 44.4423 199.562 45.0021 198.542C45.562 197.522 46.3194 196.747 47.2742 196.217C48.229 195.688 49.2988 195.423 50.4837 195.423C51.2909 195.423 52.0374 195.536 52.7231 195.762C53.4089 195.983 54.0121 196.309 54.5329 196.738C55.0537 197.164 55.4769 197.687 55.8024 198.307C56.1279 198.928 56.3297 199.637 56.4078 200.436ZM61.4743 195.606V208.938H58.2518V195.606H61.4743ZM74.8445 195.606V208.938H72.1102L66.8045 201.243H66.7199V208.938H63.4974V195.606H66.2707L71.5178 203.287H71.6285V195.606H74.8445ZM88.973 200.436H85.718C85.6746 200.102 85.5856 199.8 85.4511 199.531C85.3165 199.262 85.1386 199.032 84.9172 198.841C84.6959 198.65 84.4333 198.505 84.1295 198.405C83.8301 198.301 83.498 198.249 83.1335 198.249C82.4868 198.249 81.9291 198.407 81.4604 198.724C80.996 199.041 80.6379 199.499 80.3862 200.098C80.1388 200.696 80.0151 201.421 80.0151 202.272C80.0151 203.157 80.141 203.899 80.3927 204.498C80.6488 205.093 81.0068 205.542 81.4669 205.846C81.9313 206.145 82.4803 206.295 83.1139 206.295C83.4698 206.295 83.7932 206.25 84.0839 206.158C84.3791 206.067 84.6373 205.935 84.8586 205.761C85.0843 205.583 85.2688 205.369 85.412 205.117C85.5596 204.861 85.6616 204.572 85.718 204.251L88.973 204.27C88.9166 204.861 88.7452 205.442 88.4587 206.015C88.1766 206.588 87.7882 207.111 87.2934 207.584C86.7987 208.053 86.1954 208.426 85.4836 208.704C84.7762 208.982 83.9646 209.121 83.0488 209.121C81.8423 209.121 80.7616 208.856 79.8068 208.326C78.8563 207.792 78.1055 207.016 77.5543 205.996C77.0031 204.976 76.7275 203.734 76.7275 202.272C76.7275 200.805 77.0075 199.562 77.5673 198.542C78.1272 197.522 78.8845 196.747 79.8394 196.217C80.7942 195.688 81.864 195.423 83.0488 195.423C83.8561 195.423 84.6026 195.536 85.2883 195.762C85.974 195.983 86.5773 196.309 87.0981 196.738C87.6189 197.164 88.0421 197.687 88.3676 198.307C88.6931 198.928 88.8949 199.637 88.973 200.436ZM90.3808 198.223V195.606H101.65V198.223H97.6071V208.938H94.4301V198.223H90.3808Z" fill="white"/>
<path d="M20.9431 219.819H17.7012C17.658 219.486 17.5694 219.186 17.4354 218.918C17.3014 218.65 17.1241 218.42 16.9037 218.23C16.6832 218.04 16.4217 217.895 16.1192 217.796C15.8209 217.692 15.4902 217.64 15.1271 217.64C14.4831 217.64 13.9276 217.798 13.4608 218.114C12.9983 218.429 12.6417 218.885 12.391 219.482C12.1446 220.078 12.0214 220.8 12.0214 221.647C12.0214 222.529 12.1468 223.268 12.3975 223.865C12.6525 224.457 13.0091 224.904 13.4673 225.207C13.9298 225.505 14.4766 225.654 15.1077 225.654C15.4621 225.654 15.7842 225.609 16.0738 225.518C16.3677 225.427 16.6249 225.295 16.8453 225.123C17.0701 224.945 17.2538 224.731 17.3965 224.481C17.5434 224.226 17.645 223.938 17.7012 223.618L20.9431 223.638C20.8869 224.226 20.7162 224.805 20.4309 225.375C20.1499 225.946 19.763 226.467 19.2703 226.938C18.7775 227.405 18.1767 227.777 17.4678 228.053C16.7632 228.33 15.9549 228.468 15.0429 228.468C13.8412 228.468 12.7649 228.204 11.8139 227.677C10.8673 227.145 10.1195 226.372 9.57055 225.356C9.02159 224.34 8.74711 223.104 8.74711 221.647C8.74711 220.186 9.02591 218.948 9.58351 217.932C10.1411 216.916 10.8954 216.145 11.8464 215.617C12.7973 215.09 13.8628 214.826 15.0429 214.826C15.8468 214.826 16.5903 214.939 17.2733 215.163C17.9562 215.384 18.5571 215.708 19.0758 216.136C19.5945 216.56 20.0159 217.08 20.3401 217.699C20.6643 218.317 20.8653 219.023 20.9431 219.819ZM35.3128 221.647C35.3128 223.108 35.0318 224.347 34.4699 225.362C33.9079 226.378 33.1472 227.15 32.1876 227.677C31.2323 228.204 30.1603 228.468 28.9716 228.468C27.7786 228.468 26.7045 228.202 25.7492 227.671C24.7939 227.139 24.0353 226.367 23.4734 225.356C22.9158 224.34 22.637 223.104 22.637 221.647C22.637 220.186 22.9158 218.948 23.4734 217.932C24.0353 216.916 24.7939 216.145 25.7492 215.617C26.7045 215.09 27.7786 214.826 28.9716 214.826C30.1603 214.826 31.2323 215.09 32.1876 215.617C33.1472 216.145 33.9079 216.916 34.4699 217.932C35.0318 218.948 35.3128 220.186 35.3128 221.647ZM32.032 221.647C32.032 220.783 31.9088 220.052 31.6624 219.456C31.4203 218.859 31.0702 218.408 30.612 218.101C30.1582 217.794 29.6114 217.64 28.9716 217.64C28.3362 217.64 27.7894 217.794 27.3312 218.101C26.873 218.408 26.5208 218.859 26.2744 219.456C26.0323 220.052 25.9113 220.783 25.9113 221.647C25.9113 222.512 26.0323 223.242 26.2744 223.839C26.5208 224.435 26.873 224.887 27.3312 225.194C27.7894 225.501 28.3362 225.654 28.9716 225.654C29.6114 225.654 30.1582 225.501 30.612 225.194C31.0702 224.887 31.4203 224.435 31.6624 223.839C31.9088 223.242 32.032 222.512 32.032 221.647ZM37.1866 215.008H41.1611L44.5327 223.229H44.6883L48.0599 215.008H52.0344V228.287H48.9092V220.13H48.799L45.609 228.202H43.612L40.422 220.085H40.3117V228.287H37.1866V215.008ZM54.0363 215.008H58.0108L61.3824 223.229H61.538L64.9096 215.008H68.8841V228.287H65.7589V220.13H65.6487L62.4587 228.202H60.4617L57.2717 220.085H57.1615V228.287H54.0363V215.008ZM74.0955 215.008V228.287H70.886V215.008H74.0955ZM75.6759 217.614V215.008H86.8993V217.614H82.8729V228.287H79.7088V217.614H75.6759ZM88.4668 228.287V215.008H97.7256V217.614H91.6762V220.338H97.2523V222.95H91.6762V225.68H97.7256V228.287H88.4668ZM99.7356 228.287V215.008H108.994V217.614H102.945V220.338H108.521V222.95H102.945V225.68H108.994V228.287H99.7356ZM111.004 215.008H114.979L118.35 223.229H118.506L121.878 215.008H125.852V228.287H122.727V220.13H122.617L119.427 228.202H117.43L114.24 220.085H114.13V228.287H111.004V215.008ZM130.726 228.287H127.277L131.757 215.008H136.03L140.51 228.287H137.061L133.942 218.353H133.839L130.726 228.287ZM130.266 223.061H137.476V225.499H130.266V223.061ZM153.241 215.008V228.287H150.518L145.234 220.623H145.15V228.287H141.94V215.008H144.702L149.928 222.659H150.038V215.008H153.241Z" fill="white"/>
</svg>
