<svg width="31" height="25" viewBox="0 0 31 25" fill="none" xmlns="http://www.w3.org/2000/svg">
<path fill-rule="evenodd" clip-rule="evenodd" d="M2.32299 1.85106C0.552734 3.62132 0.552734 6.47049 0.552734 12.1689C0.552734 17.8672 0.552734 20.7164 2.32299 22.4866C4.09324 24.2569 6.94242 24.2569 12.6408 24.2569H18.6848C24.3832 24.2569 27.2323 24.2569 29.0026 22.4866C30.7728 20.7164 30.7728 17.8672 30.7728 12.1689C30.7728 6.47049 30.7728 3.62132 29.0026 1.85106C27.2323 0.0808105 24.3832 0.0808105 18.6848 0.0808105H12.6408C6.94242 0.0808105 4.09324 0.0808105 2.32299 1.85106ZM25.5994 5.39934C26.0001 5.88015 25.9351 6.59474 25.4543 6.99542L22.1354 9.76116C20.7961 10.8773 19.7106 11.7819 18.7525 12.3981C17.7545 13.04 16.7826 13.4455 15.6628 13.4455C14.543 13.4455 13.5711 13.04 12.5731 12.3981C11.615 11.7819 10.5295 10.8773 9.19018 9.76118L5.87126 6.99542C5.39045 6.59474 5.32549 5.88015 5.72617 5.39934C6.12684 4.91853 6.84143 4.85356 7.32225 5.25424L10.5844 7.97266C11.9941 9.14741 12.9728 9.96039 13.7991 10.4918C14.599 11.0063 15.1414 11.179 15.6628 11.179C16.1842 11.179 16.7266 11.0063 17.5265 10.4918C18.3528 9.96039 19.3315 9.14741 20.7412 7.97266L24.0033 5.25424C24.4841 4.85356 25.1987 4.91853 25.5994 5.39934Z" fill="white"/>
</svg>
