<svg width="52" height="52" viewBox="0 0 52 52" fill="none" xmlns="http://www.w3.org/2000/svg">
<rect width="51.7574" height="51.7574" rx="10.6169" fill="#E6DFF5"/>
<path fill-rule="evenodd" clip-rule="evenodd" d="M16.2012 36.938C16.2012 36.4799 16.5725 36.1086 17.0306 36.1086H34.7255C35.1835 36.1086 35.5549 36.4799 35.5549 36.938C35.5549 37.3961 35.1835 37.7675 34.7255 37.7675H17.0306C16.5725 37.7675 16.2012 37.3961 16.2012 36.938Z" fill="#8060CF"/>
<path d="M24.3004 30.1035C24.5819 29.8839 24.8373 29.6285 25.3479 29.1179L31.8913 22.5745C31.0008 22.2038 29.946 21.595 28.9484 20.5974C27.9507 19.5997 27.3418 18.5447 26.9712 17.6541L20.4276 24.1976L20.4276 24.1977C19.917 24.7083 19.6616 24.9636 19.4421 25.2451C19.1831 25.5772 18.961 25.9365 18.7798 26.3167C18.6262 26.639 18.512 26.9815 18.2837 27.6666L17.0794 31.2793C16.967 31.6165 17.0548 31.9882 17.3061 32.2395C17.5574 32.4907 17.9291 32.5785 18.2662 32.4661L21.8789 31.2619C22.564 31.0335 22.9066 30.9193 23.2288 30.7657C23.609 30.5845 23.9684 30.3625 24.3004 30.1035Z" fill="#8060CF"/>
<path d="M33.7071 20.7588C35.0658 19.4001 35.0658 17.1972 33.7071 15.8385C32.3484 14.4798 30.1455 14.4798 28.7868 15.8385L28.002 16.6233C28.0127 16.6557 28.0239 16.6886 28.0354 16.722C28.3231 17.5511 28.8658 18.638 29.8868 19.659C30.9078 20.68 31.9948 21.2228 32.8239 21.5104C32.8571 21.5219 32.8898 21.533 32.9221 21.5437L33.7071 20.7588Z" fill="#8060CF"/>
</svg>
