<svg width="52" height="52" viewBox="0 0 52 52" fill="none" xmlns="http://www.w3.org/2000/svg">
<rect width="51.7574" height="51.7574" rx="10.6169" fill="#F4D2D2"/>
<path fill-rule="evenodd" clip-rule="evenodd" d="M16.2012 36.938C16.2012 36.4799 16.5725 36.1085 17.0306 36.1085H34.7255C35.1835 36.1085 35.5549 36.4799 35.5549 36.938C35.5549 37.3961 35.1835 37.7674 34.7255 37.7674H17.0306C16.5725 37.7674 16.2012 37.3961 16.2012 36.938Z" fill="#CF3C2D"/>
<path d="M24.2985 30.1035C24.58 29.8839 24.8353 29.6286 25.346 29.1179L31.8894 22.5745C30.9988 22.2039 29.944 21.595 28.9465 20.5974C27.9487 19.5997 27.3399 18.5448 26.9692 17.6541L20.4257 24.1976L20.4256 24.1977C19.915 24.7083 19.6597 24.9636 19.4401 25.2451C19.1811 25.5772 18.959 25.9365 18.7778 26.3167C18.6243 26.639 18.5101 26.9816 18.2817 27.6667L17.0775 31.2794C16.9651 31.6165 17.0528 31.9882 17.3041 32.2395C17.5554 32.4908 17.9271 32.5785 18.2643 32.4661L21.877 31.2619C22.562 31.0335 22.9046 30.9194 23.2269 30.7658C23.6071 30.5846 23.9664 30.3625 24.2985 30.1035Z" fill="#CF3C2D"/>
<path d="M33.7051 20.7588C35.0638 19.4001 35.0638 17.1972 33.7051 15.8385C32.3464 14.4798 30.1435 14.4798 28.7848 15.8385L28 16.6233C28.0108 16.6558 28.0219 16.6887 28.0335 16.722C28.3211 17.5511 28.8639 18.638 29.8849 19.659C30.9059 20.68 31.9928 21.2228 32.8219 21.5104C32.8551 21.5219 32.8879 21.533 32.9202 21.5437L33.7051 20.7588Z" fill="#CF3C2D"/>
</svg>
