<svg width="25" height="25" viewBox="0 0 25 25" fill="none" xmlns="http://www.w3.org/2000/svg">
<path d="M9.69705 1.98947L10.6777 3.74667C11.5627 5.33244 11.2074 7.4127 9.81358 8.80656C9.81358 8.80657 9.81358 8.80657 9.81357 8.80657C9.8133 8.80684 8.12311 10.4975 11.1883 13.5627C14.2519 16.6264 15.9425 14.9394 15.9445 14.9375C15.9445 14.9374 15.9445 14.9374 15.9445 14.9374C17.3384 13.5436 19.4186 13.1883 21.0044 14.0733L22.7616 15.054C25.1561 16.3903 25.4389 19.7484 23.3341 21.8532C22.0694 23.1179 20.5201 24.102 18.8074 24.1669C15.9242 24.2762 11.0278 23.5465 6.11614 18.6349C1.2045 13.7233 0.474817 8.82685 0.584118 5.94365C0.649047 4.23094 1.63314 2.68161 2.89785 1.41689C5.0026 -0.68786 8.36069 -0.405067 9.69705 1.98947Z" fill="white"/>
</svg>
