<svg width="404" height="405" viewBox="0 0 404 405" fill="none" xmlns="http://www.w3.org/2000/svg">
<g clip-path="url(#clip0_857_7594)">
<rect width="403.259" height="403.259" transform="translate(0.529297 0.890015)" fill="#F4F6FB"/>
<g clip-path="url(#clip1_857_7594)">
<rect width="425.314" height="322.19" transform="translate(72.0801 11.3916) rotate(12.8308)" fill="white"/>
<g filter="url(#filter0_d_857_7594)">
<g clip-path="url(#clip2_857_7594)">
<path d="M80.6548 51.4109C83.0923 40.7086 93.7443 34.0087 104.447 36.4463L448.087 114.714C458.789 117.151 465.489 127.803 463.052 138.506L434.069 265.756L51.6723 178.661L80.6548 51.4109Z" fill="#E8373A"/>
<path d="M420.643 131.235L419.377 130.961C396.708 126.045 395.514 141.037 394.662 144.965L437.338 154.219C438.188 150.292 443.311 136.15 420.643 131.235ZM406.381 141.3L404.721 144.146L404.391 140.868L401.172 140.171L404.186 138.842L403.856 135.564L406.05 138.022L409.065 136.695L407.406 139.541L409.6 141.997L406.381 141.3ZM418.182 143.858L416.522 146.704L416.192 143.426L412.971 142.729L415.987 141.4L415.655 138.124L417.85 140.58L420.866 139.253L419.206 142.099L421.401 144.557L418.182 143.858ZM429.981 146.417L428.322 149.264L427.992 145.986L424.772 145.287L427.787 143.96L427.456 140.682L429.651 143.14L432.665 141.811L431.006 144.657L433.201 147.115L429.981 146.417Z" fill="white"/>
<path d="M440.789 171.461L436.656 170.565L436.009 173.552C435.844 174.309 435.098 174.79 434.341 174.626C433.584 174.461 433.103 173.715 433.267 172.958L436.976 155.854L394.258 146.591L389.36 169.177L399.918 171.467L401.728 163.12L414.985 165.995L413.157 174.423L423.14 176.589L425.802 164.312C425.966 163.556 426.713 163.076 427.47 163.24C428.227 163.404 428.708 164.151 428.544 164.908L427.256 170.648C426.47 174.274 428.773 177.852 432.399 178.639C436.027 179.426 439.604 177.123 440.391 173.495L440.789 171.461Z" fill="white"/>
<path d="M175.886 107.946L182.417 79.2709L199.611 83.1869L198.91 86.2673L185.188 83.1421L182.981 92.8311L195.415 95.6629L194.713 98.7433L182.28 95.9114L179.359 108.737L175.886 107.946ZM198.579 113.114L203.478 91.6082L206.782 92.3608L201.884 113.867L198.579 113.114ZM205.974 88.4065C205.33 88.2598 204.825 87.9139 204.458 87.3689C204.1 86.826 203.992 86.2466 204.132 85.6305C204.272 85.0144 204.621 84.5391 205.179 84.2046C205.745 83.8722 206.351 83.7793 206.995 83.926C207.639 84.0727 208.139 84.4175 208.497 84.9604C208.864 85.5054 208.977 86.0859 208.837 86.702C208.696 87.318 208.343 87.7923 207.776 88.1247C207.219 88.4592 206.618 88.5532 205.974 88.4065ZM207.936 115.246L212.834 93.7392L216.026 94.4663L215.287 97.7146L215.511 97.7657C216.145 96.7909 217.051 96.089 218.229 95.6601C219.407 95.2312 220.639 95.1635 221.928 95.4569C222.17 95.5122 222.473 95.5859 222.834 95.6782C223.196 95.7704 223.469 95.8471 223.651 95.9083L222.886 99.2687C222.78 99.2152 222.533 99.1147 222.144 98.9673C221.767 98.8126 221.359 98.6854 220.92 98.5854C219.875 98.3473 218.892 98.3541 217.97 98.6057C217.06 98.8501 216.28 99.3008 215.63 99.9578C214.991 100.608 214.561 101.418 214.34 102.389L211.24 115.998L207.936 115.246ZM241.641 105.367L238.481 105.531C238.407 104.993 238.241 104.45 237.983 103.9C237.737 103.343 237.341 102.841 236.795 102.393C236.249 101.944 235.496 101.611 234.534 101.392C233.218 101.092 232.052 101.145 231.037 101.552C230.032 101.952 229.425 102.614 229.215 103.538C229.028 104.359 229.178 105.076 229.667 105.688C230.156 106.3 230.999 106.91 232.197 107.516L235.21 109.027C237.027 109.932 238.297 110.972 239.021 112.149C239.747 113.315 239.939 114.65 239.596 116.153C239.316 117.385 238.71 118.406 237.78 119.215C236.859 120.026 235.704 120.569 234.316 120.842C232.929 121.115 231.399 121.061 229.729 120.68C227.535 120.181 225.828 119.291 224.607 118.012C223.387 116.732 222.793 115.134 222.827 113.217L226.142 113.148C226.177 114.373 226.544 115.37 227.243 116.138C227.952 116.908 228.982 117.447 230.336 117.755C231.876 118.106 233.173 118.058 234.228 117.611C235.293 117.156 235.931 116.467 236.142 115.543C236.312 114.796 236.193 114.111 235.785 113.488C235.379 112.856 234.664 112.29 233.638 111.792L230.245 110.135C228.382 109.22 227.1 108.167 226.399 106.976C225.71 105.778 225.534 104.437 225.872 102.953C226.148 101.74 226.734 100.744 227.628 99.9658C228.531 99.1897 229.636 98.6706 230.943 98.4085C232.259 98.1486 233.673 98.1908 235.185 98.5352C237.313 99.02 238.878 99.8672 239.878 101.077C240.889 102.289 241.476 103.719 241.641 105.367ZM257.457 103.902L256.819 106.703L245.674 104.164L246.312 101.364L257.457 103.902ZM250.734 96.9514L254.038 97.704L249.369 118.202C249.157 119.136 249.133 119.866 249.297 120.395C249.473 120.916 249.757 121.305 250.151 121.561C250.555 121.811 251 121.99 251.486 122.101C251.85 122.184 252.153 122.233 252.395 122.249C252.639 122.256 252.834 122.261 252.98 122.265L252.976 125.386C252.733 125.419 252.401 125.432 251.981 125.424C251.558 125.426 251.039 125.357 250.423 125.217C249.489 125.004 248.62 124.595 247.815 123.99C247.02 123.386 246.422 122.607 246.021 121.652C245.629 120.698 245.576 119.596 245.861 118.346L250.734 96.9514ZM298.336 105.672L291.805 134.348L288.444 133.582L277.947 107.509L277.667 107.445L272.539 129.959L269.066 129.169L275.597 100.494L278.958 101.259L289.499 127.401L289.779 127.465L294.919 104.894L298.336 105.672ZM304.519 137.773C303.156 137.463 301.978 136.925 300.984 136.158C299.992 135.383 299.281 134.43 298.851 133.301C298.423 132.163 298.368 130.894 298.687 129.494C298.968 128.262 299.438 127.318 300.098 126.663C300.76 125.999 301.547 125.54 302.459 125.286C303.371 125.033 304.341 124.91 305.37 124.918C306.411 124.92 307.445 124.969 308.474 125.066C309.819 125.195 310.907 125.311 311.738 125.412C312.581 125.505 313.213 125.487 313.635 125.358C314.067 125.23 314.343 124.9 314.465 124.368L314.49 124.256C314.805 122.875 314.671 121.715 314.089 120.778C313.517 119.842 312.47 119.201 310.949 118.855C309.371 118.495 308.056 118.559 307.002 119.046C305.949 119.532 305.151 120.126 304.608 120.827L301.727 118.993C302.585 117.814 303.563 116.966 304.662 116.451C305.773 115.928 306.917 115.649 308.094 115.612C309.282 115.569 310.417 115.67 311.5 115.917C312.191 116.074 312.965 116.339 313.823 116.711C314.692 117.076 315.489 117.606 316.215 118.301C316.949 118.999 317.481 119.92 317.809 121.065C318.137 122.21 318.107 123.637 317.718 125.345L314.491 139.514L311.186 138.762L311.85 135.85L311.682 135.811C311.351 136.227 310.864 136.641 310.22 137.054C309.576 137.467 308.778 137.762 307.825 137.937C306.872 138.113 305.77 138.058 304.519 137.773ZM305.699 134.92C307.006 135.218 308.166 135.212 309.179 134.902C310.201 134.595 311.033 134.088 311.676 133.38C312.327 132.674 312.755 131.873 312.959 130.977L313.648 127.953C313.47 128.089 313.127 128.173 312.619 128.204C312.122 128.229 311.554 128.222 310.915 128.184C310.287 128.14 309.675 128.089 309.079 128.031C308.495 127.967 308.02 127.918 307.655 127.884C306.771 127.8 305.927 127.799 305.122 127.881C304.33 127.956 303.648 128.189 303.078 128.579C302.52 128.963 302.145 129.574 301.953 130.414C301.692 131.562 301.919 132.527 302.634 133.309C303.361 134.083 304.383 134.62 305.699 134.92ZM320.522 140.888L325.42 119.382L328.612 120.109L327.847 123.469L328.127 123.533C328.837 122.487 329.763 121.76 330.906 121.353C332.052 120.936 333.325 120.888 334.725 121.206C336.144 121.53 337.251 122.121 338.047 122.979C338.855 123.831 339.394 124.891 339.664 126.161L339.888 126.212C340.692 125.226 341.719 124.532 342.969 124.13C344.222 123.718 345.618 123.688 347.158 124.038C349.081 124.476 350.517 125.437 351.465 126.919C352.416 128.392 352.603 130.394 352.027 132.924L348.749 147.317L345.445 146.564L348.723 132.171C349.084 130.584 348.908 129.351 348.196 128.472C347.483 127.593 346.538 127.019 345.362 126.752C343.85 126.407 342.574 126.598 341.535 127.323C340.498 128.039 339.821 129.093 339.505 130.484L336.316 144.485L332.955 143.72L336.31 128.99C336.588 127.768 336.416 126.692 335.793 125.765C335.172 124.828 334.236 124.217 332.985 123.932C332.126 123.737 331.271 123.783 330.42 124.07C329.579 124.359 328.837 124.858 328.194 125.566C327.563 126.267 327.128 127.144 326.888 128.199L323.826 141.641L320.522 140.888ZM363.705 151.195C361.633 150.723 359.95 149.858 358.655 148.601C357.372 147.337 356.513 145.786 356.077 143.949C355.653 142.105 355.692 140.081 356.193 137.878C356.695 135.675 357.539 133.825 358.724 132.328C359.921 130.823 361.35 129.765 363.012 129.151C364.685 128.531 366.492 128.442 368.434 128.884C369.554 129.139 370.617 129.578 371.624 130.2C372.631 130.822 373.487 131.655 374.192 132.699C374.899 133.734 375.362 134.998 375.582 136.492C375.801 137.985 375.682 139.735 375.225 141.742L374.906 143.142L358.329 139.366L358.979 136.51L372.197 139.52C372.473 138.307 372.477 137.169 372.208 136.106C371.949 135.046 371.439 134.139 370.678 133.386C369.926 132.636 368.952 132.124 367.757 131.852C366.441 131.553 365.228 131.62 364.118 132.054C363.019 132.481 362.095 133.155 361.346 134.074C360.596 134.993 360.087 136.045 359.817 137.231L359.383 139.135C359.013 140.759 358.979 142.2 359.282 143.457C359.596 144.707 360.191 145.74 361.065 146.558C361.941 147.366 363.047 147.923 364.382 148.227C365.25 148.424 366.061 148.482 366.817 148.398C367.583 148.308 368.28 148.074 368.906 147.696C369.534 147.309 370.073 146.774 370.523 146.091L373.512 147.714C372.929 148.72 372.147 149.544 371.167 150.184C370.189 150.816 369.064 151.227 367.793 151.419C366.524 151.601 365.162 151.527 363.705 151.195Z" fill="white"/>
<path d="M111.004 162.037L120.745 119.269L129.788 121.329L121.745 156.642L140.08 160.818L138.382 168.273L111.004 162.037ZM153.212 172.288C151.165 171.822 149.422 171.051 147.983 169.976C146.547 168.888 145.523 167.534 144.91 165.916C144.315 164.286 144.258 162.414 144.74 160.298C145.146 158.516 145.814 157.093 146.744 156.031C147.674 154.969 148.787 154.197 150.083 153.716C151.379 153.235 152.786 152.97 154.306 152.921C155.839 152.875 157.417 152.956 159.039 153.164C160.949 153.394 162.494 153.556 163.674 153.649C164.856 153.728 165.745 153.652 166.339 153.421C166.934 153.19 167.309 152.734 167.464 152.052L167.493 151.927C167.794 150.604 167.609 149.486 166.939 148.571C166.282 147.66 165.195 147.032 163.678 146.686C162.077 146.322 160.722 146.387 159.614 146.881C158.508 147.361 157.682 148.096 157.135 149.084L149.059 146.542C149.921 144.688 151.126 143.191 152.674 142.049C154.226 140.895 156.057 140.155 158.166 139.83C160.293 139.494 162.637 139.618 165.199 140.201C166.981 140.607 168.639 141.204 170.172 141.993C171.72 142.785 173.027 143.764 174.095 144.929C175.176 146.098 175.928 147.456 176.352 149.002C176.779 150.534 176.776 152.254 176.341 154.162L171.414 175.796L162.977 173.875L163.99 169.427L163.739 169.37C162.996 170.255 162.105 170.982 161.068 171.551C160.034 172.106 158.862 172.461 157.552 172.617C156.246 172.759 154.799 172.649 153.212 172.288ZM157.158 166.728C158.467 167.026 159.681 167.032 160.801 166.745C161.923 166.444 162.872 165.914 163.645 165.153C164.419 164.392 164.934 163.447 165.191 162.32L165.967 158.916C165.647 159.033 165.226 159.113 164.704 159.155C164.199 159.187 163.633 159.197 163.006 159.186C162.381 159.161 161.759 159.129 161.138 159.09C160.521 159.037 159.96 158.99 159.457 158.949C158.378 158.864 157.411 158.9 156.555 159.057C155.699 159.213 154.991 159.528 154.429 160C153.871 160.459 153.496 161.106 153.306 161.941C153.03 163.152 153.258 164.178 153.989 165.018C154.737 165.848 155.794 166.418 157.158 166.728ZM210.226 160.517L201.968 159.164C201.987 158.436 201.83 157.741 201.498 157.08C201.168 156.404 200.666 155.814 199.99 155.308C199.332 154.792 198.487 154.417 197.457 154.182C196.079 153.868 194.85 153.896 193.77 154.265C192.693 154.62 192.045 155.278 191.827 156.239C191.652 157.004 191.811 157.722 192.303 158.39C192.795 159.059 193.75 159.723 195.166 160.382L200.705 162.874C203.678 164.225 205.768 165.784 206.976 167.553C208.184 169.322 208.525 171.362 207.999 173.673C207.52 175.775 206.48 177.479 204.88 178.784C203.293 180.092 201.326 180.947 198.979 181.35C196.65 181.742 194.093 181.621 191.308 180.986C187.062 180.019 183.88 178.365 181.763 176.023C179.663 173.67 178.746 170.913 179.012 167.752L187.867 169.285C187.836 170.64 188.251 171.775 189.112 172.688C189.976 173.588 191.202 174.219 192.789 174.58C194.348 174.935 195.67 174.921 196.753 174.538C197.853 174.145 198.519 173.469 198.752 172.511C198.922 171.701 198.731 170.962 198.18 170.295C197.633 169.613 196.694 168.975 195.366 168.379L190.063 166.007C187.073 164.667 184.989 163.05 183.809 161.156C182.644 159.265 182.333 157.123 182.879 154.728C183.348 152.668 184.309 151.019 185.762 149.783C187.229 148.551 189.071 147.762 191.288 147.417C193.518 147.076 196.005 147.218 198.747 147.842C202.798 148.765 205.792 150.347 207.727 152.589C209.675 154.834 210.509 157.477 210.226 160.517ZM235.704 156.699L234.182 163.381L214.865 158.982L216.387 152.299L235.704 156.699ZM222.523 145.613L231.419 147.639L224.608 177.544C224.421 178.365 224.4 179.034 224.546 179.551C224.695 180.053 224.972 180.446 225.376 180.728C225.794 181.014 226.303 181.225 226.901 181.361C227.319 181.456 227.745 181.516 228.178 181.542C228.615 181.554 228.949 181.564 229.182 181.573L229.073 188.511C228.596 188.549 227.933 188.567 227.084 188.564C226.232 188.575 225.224 188.469 224.059 188.248C221.896 187.843 220.081 187.13 218.615 186.108C217.163 185.089 216.149 183.789 215.572 182.207C214.995 180.626 214.953 178.786 215.445 176.687L222.523 145.613ZM293.484 158.612L283.743 201.38L275.933 199.602L263.457 168.446L263.144 168.374L257.013 195.292L247.971 193.233L257.711 150.465L265.647 152.272L277.981 183.374L278.357 183.459L284.483 156.562L293.484 158.612ZM300.056 205.733C298.009 205.267 296.266 204.496 294.827 203.422C293.391 202.333 292.366 200.979 291.754 199.361C291.159 197.732 291.102 195.859 291.584 193.743C291.99 191.961 292.658 190.539 293.588 189.476C294.518 188.414 295.631 187.643 296.927 187.162C298.223 186.681 299.63 186.415 301.15 186.366C302.683 186.32 304.261 186.401 305.883 186.609C307.793 186.839 309.338 187.001 310.517 187.094C311.7 187.173 312.589 187.097 313.183 186.866C313.778 186.636 314.152 186.179 314.308 185.497L314.336 185.372C314.638 184.049 314.453 182.931 313.783 182.016C313.126 181.105 312.039 180.477 310.522 180.131C308.921 179.767 307.566 179.832 306.457 180.326C305.352 180.807 304.526 181.541 303.979 182.529L295.903 179.987C296.765 178.133 297.97 176.636 299.518 175.495C301.07 174.34 302.901 173.6 305.01 173.275C307.137 172.939 309.481 173.063 312.043 173.646C313.825 174.052 315.482 174.65 317.016 175.438C318.564 176.23 319.871 177.209 320.938 178.374C322.019 179.543 322.772 180.901 323.196 182.447C323.623 183.979 323.619 185.699 323.185 187.607L318.257 209.241L309.821 207.32L310.834 202.872L310.583 202.815C309.84 203.7 308.949 204.427 307.912 204.996C306.877 205.551 305.705 205.907 304.396 206.062C303.09 206.204 301.643 206.094 300.056 205.733ZM304.002 200.173C305.31 200.472 306.525 200.477 307.644 200.19C308.767 199.89 309.716 199.359 310.489 198.598C311.263 197.837 311.778 196.892 312.035 195.765L312.81 192.361C312.491 192.478 312.07 192.558 311.548 192.6C311.043 192.632 310.477 192.642 309.849 192.631C309.225 192.606 308.603 192.574 307.982 192.535C307.364 192.482 306.804 192.435 306.301 192.394C305.222 192.309 304.254 192.345 303.399 192.502C302.543 192.658 301.834 192.973 301.273 193.445C300.714 193.904 300.34 194.551 300.15 195.386C299.874 196.597 300.102 197.623 300.833 198.463C301.581 199.293 302.637 199.863 304.002 200.173ZM325.159 210.813L332.465 178.737L340.943 180.668L339.654 186.327L340.03 186.413C341.127 184.686 342.578 183.457 344.385 182.726C346.191 181.995 348.18 181.877 350.352 182.372C352.552 182.873 354.299 183.849 355.594 185.301C356.892 186.739 357.586 188.449 357.676 190.432L358.011 190.508C359.083 188.82 360.601 187.62 362.564 186.911C364.544 186.19 366.711 186.098 369.063 186.633C372.057 187.315 374.269 188.822 375.7 191.154C377.148 193.476 377.476 196.377 376.683 199.857L371.77 221.429L362.895 219.408L367.408 199.59C367.814 197.808 367.645 196.364 366.902 195.257C366.158 194.15 365.076 193.435 363.656 193.112C362.041 192.744 360.664 192.972 359.524 193.796C358.388 194.607 357.629 195.847 357.249 197.518L352.787 217.106L344.163 215.142L348.719 195.136C349.078 193.563 348.91 192.206 348.218 191.068C347.539 189.932 346.469 189.198 345.007 188.865C344.019 188.639 343.071 188.687 342.163 189.008C341.273 189.317 340.496 189.865 339.834 190.652C339.175 191.424 338.71 192.402 338.441 193.585L334.055 212.84L325.159 210.813ZM393.273 226.986C389.973 226.234 387.285 224.919 385.209 223.04C383.15 221.151 381.76 218.828 381.041 216.072C380.324 213.303 380.351 210.226 381.122 206.843C381.873 203.544 383.173 200.794 385.022 198.593C386.87 196.393 389.115 194.862 391.757 193.999C394.413 193.139 397.315 193.068 400.461 193.785C402.577 194.267 404.469 195.056 406.138 196.154C407.823 197.241 409.194 198.615 410.251 200.276C411.322 201.94 412.007 203.883 412.307 206.104C412.609 208.311 412.45 210.779 411.829 213.507L411.272 215.951L384.187 209.782L385.443 204.269L404.154 208.53C404.445 207.249 404.425 206.051 404.094 204.936C403.762 203.821 403.165 202.872 402.304 202.09C401.459 201.297 400.389 200.754 399.095 200.459C397.744 200.151 396.476 200.192 395.289 200.58C394.119 200.958 393.123 201.603 392.3 202.514C391.481 203.411 390.92 204.491 390.618 205.755L389.424 210.996C389.062 212.584 389.042 214.021 389.364 215.31C389.699 216.602 390.339 217.685 391.282 218.559C392.225 219.432 393.442 220.039 394.931 220.378C395.92 220.603 396.856 220.67 397.741 220.579C398.626 220.488 399.424 220.23 400.136 219.806C400.847 219.383 401.448 218.802 401.938 218.064L410.043 220.481C409.175 222.363 407.925 223.894 406.294 225.075C404.681 226.245 402.764 227.01 400.544 227.368C398.342 227.716 395.918 227.588 393.273 226.986Z" fill="white"/>
</g>
<path d="M61.4452 189.544L60.9043 183.711L60.8398 183.697L57.8263 188.72L52.1719 187.432L52.1572 187.496L55.9748 191.85L52.9379 196.902L52.9827 196.929L58.3849 194.625L62.2559 199.041L62.3081 199.036L61.7586 193.167L67.0849 190.896L67.0996 190.832L61.4452 189.544Z" fill="#3C70A6"/>
<path d="M87.3534 195.445L86.8125 189.612L86.748 189.598L83.7345 194.621L78.0801 193.333L78.0654 193.397L81.883 197.751L78.8461 202.803L78.8909 202.83L84.2931 200.526L88.1641 204.942L88.2164 204.937L87.6668 199.068L92.9931 196.797L93.0078 196.733L87.3534 195.445Z" fill="#3C70A6"/>
<path d="M113.262 201.346L112.721 195.513L112.656 195.498L109.643 200.522L103.988 199.234L103.974 199.298L107.791 203.652L104.754 208.704L104.799 208.731L110.201 206.427L114.072 210.843L114.125 210.838L113.575 204.969L118.901 202.698L118.916 202.634L113.262 201.346Z" fill="#3C70A6"/>
<path d="M139.172 207.247L138.631 201.414L138.566 201.399L135.553 206.423L129.898 205.135L129.884 205.199L133.701 209.553L130.664 214.605L130.709 214.632L136.111 212.328L139.982 216.744L140.035 216.739L139.485 210.87L144.811 208.599L144.826 208.535L139.172 207.247Z" fill="#3C70A6"/>
<path d="M165.08 213.148L164.539 207.315L164.475 207.3L161.461 212.324L155.807 211.036L155.792 211.1L159.61 215.454L156.573 220.506L156.617 220.533L162.02 218.229L165.891 222.645L165.943 222.64L165.393 216.771L170.72 214.5L170.734 214.436L165.08 213.148Z" fill="#3C70A6"/>
<path d="M190.988 219.049L190.447 213.216L190.383 213.201L187.369 218.225L181.715 216.937L181.7 217.001L185.518 221.355L182.481 226.407L182.526 226.434L187.928 224.13L191.799 228.546L191.851 228.541L191.302 222.672L196.628 220.401L196.643 220.337L190.988 219.049Z" fill="#3C70A6"/>
<path d="M216.898 224.95L216.357 219.117L216.293 219.102L213.279 224.126L207.625 222.838L207.61 222.902L211.428 227.256L208.391 232.308L208.436 232.335L213.838 230.031L217.709 234.447L217.761 234.442L217.212 228.573L222.538 226.302L222.553 226.238L216.898 224.95Z" fill="#3C70A6"/>
<path d="M242.807 230.851L242.266 225.018L242.201 225.003L239.188 230.026L233.533 228.739L233.519 228.803L237.336 233.156L234.299 238.208L234.344 238.236L239.746 235.932L243.617 240.348L243.669 240.343L243.12 234.474L248.446 232.203L248.461 232.139L242.807 230.851Z" fill="#3C70A6"/>
<path d="M268.715 236.752L268.174 230.919L268.109 230.904L265.096 235.927L259.441 234.64L259.427 234.704L263.244 239.057L260.207 244.109L260.252 244.137L265.654 241.833L269.525 246.249L269.578 246.244L269.028 240.375L274.354 238.104L274.369 238.04L268.715 236.752Z" fill="#3C70A6"/>
<path d="M294.623 242.653L294.082 236.82L294.018 236.805L291.004 241.828L285.35 240.541L285.335 240.605L289.153 244.958L286.116 250.01L286.16 250.038L291.563 247.734L295.434 252.15L295.486 252.145L294.936 246.276L300.263 244.005L300.277 243.941L294.623 242.653Z" fill="#3C70A6"/>
<path d="M320.531 248.554L319.99 242.721L319.926 242.706L316.912 247.729L311.258 246.442L311.243 246.506L315.061 250.859L312.024 255.911L312.069 255.939L317.471 253.634L321.342 258.051L321.394 258.046L320.845 252.177L326.171 249.906L326.186 249.841L320.531 248.554Z" fill="#3C70A6"/>
<path d="M346.441 254.455L345.9 248.622L345.836 248.607L342.822 253.63L337.168 252.343L337.153 252.407L340.971 256.76L337.934 261.812L337.979 261.84L343.381 259.535L347.252 263.952L347.304 263.947L346.755 258.078L352.081 255.807L352.096 255.742L346.441 254.455Z" fill="#3C70A6"/>
<path d="M372.349 260.356L371.809 254.523L371.744 254.508L368.731 259.531L363.076 258.244L363.062 258.308L366.879 262.661L363.842 267.713L363.887 267.741L369.289 265.436L373.16 269.853L373.212 269.848L372.663 263.979L377.989 261.708L378.004 261.643L372.349 260.356Z" fill="#3C70A6"/>
<path d="M398.258 266.256L397.717 260.424L397.652 260.409L394.639 265.432L388.984 264.144L388.97 264.209L392.787 268.562L389.75 273.614L389.795 273.642L395.197 271.337L399.068 275.754L399.121 275.748L398.571 269.879L403.897 267.609L403.912 267.544L398.258 266.256Z" fill="#3C70A6"/>
<g clip-path="url(#clip3_857_7594)">
<path d="M408.208 379.303C405.771 390.005 395.119 396.705 384.417 394.267L40.7763 316C30.074 313.562 23.3741 302.91 25.8116 292.208L47.1439 198.547L429.541 285.641L408.208 379.303Z" fill="#3C70A6"/>
<path d="M112.433 280.012L106.24 278.601C106.302 277.946 106.264 277.334 106.124 276.764C105.985 276.193 105.746 275.678 105.408 275.219C105.069 274.76 104.633 274.37 104.098 274.048C103.573 273.72 102.964 273.477 102.27 273.319C101.04 273.039 99.9102 273.099 98.881 273.498C97.8602 273.9 96.9805 274.616 96.242 275.646C95.5117 276.679 94.9623 278.004 94.5937 279.623C94.21 281.307 94.1279 282.774 94.3473 284.023C94.5768 285.265 95.0634 286.275 95.8071 287.052C96.5609 287.823 97.5406 288.346 98.7462 288.62C99.4234 288.775 100.058 288.828 100.651 288.781C101.252 288.735 101.801 288.595 102.297 288.361C102.804 288.12 103.248 287.791 103.629 287.374C104.021 286.951 104.34 286.446 104.587 285.86L110.772 287.307C110.408 288.406 109.83 289.438 109.037 290.404C108.252 291.372 107.286 292.199 106.14 292.884C104.995 293.562 103.686 294.01 102.211 294.23C100.745 294.452 99.1404 294.365 97.398 293.968C95.1023 293.445 93.1609 292.473 91.5736 291.052C89.9965 289.624 88.9046 287.821 88.2978 285.641C87.6911 283.462 87.7046 280.981 88.3384 278.198C88.9741 275.407 90.0456 273.162 91.5528 271.464C93.0601 269.766 94.8368 268.621 96.8829 268.027C98.9291 267.433 101.079 267.393 103.334 267.907C104.87 268.256 106.241 268.795 107.448 269.521C108.657 270.239 109.664 271.12 110.468 272.163C111.275 273.198 111.853 274.377 112.204 275.699C112.554 277.021 112.631 278.458 112.433 280.012ZM139.09 289.757C138.454 292.548 137.378 294.792 135.863 296.488C134.347 298.184 132.558 299.327 130.496 299.917C128.441 300.509 126.278 300.546 124.008 300.029C121.728 299.51 119.792 298.534 118.198 297.103C116.605 295.672 115.491 293.868 114.858 291.691C114.235 289.508 114.24 287.024 114.874 284.242C115.509 281.45 116.581 279.206 118.088 277.508C119.604 275.812 121.389 274.668 123.443 274.076C125.497 273.484 127.664 273.448 129.943 273.967C132.214 274.484 134.147 275.455 135.743 276.878C137.347 278.303 138.464 280.108 139.096 282.293C139.727 284.478 139.725 286.966 139.09 289.757ZM132.822 288.33C133.198 286.678 133.281 285.229 133.069 283.982C132.867 282.737 132.394 281.722 131.652 280.936C130.919 280.152 129.941 279.621 128.719 279.343C127.505 279.066 126.394 279.122 125.385 279.509C124.376 279.896 123.506 280.605 122.776 281.638C122.054 282.672 121.505 284.015 121.129 285.666C120.753 287.318 120.666 288.766 120.869 290.011C121.08 291.258 121.557 292.274 122.298 293.06C123.04 293.845 124.018 294.376 125.232 294.653C126.454 294.931 127.565 294.876 128.566 294.487C129.575 294.1 130.44 293.39 131.162 292.355C131.893 291.323 132.446 289.981 132.822 288.33ZM145.558 277.888L153.151 279.618L156.015 296.791L156.312 296.859L166.331 282.62L173.924 284.349L168.146 309.717L162.175 308.357L165.725 292.775L165.514 292.727L155.907 306.76L152.092 305.891L149.53 288.995L149.32 288.947L145.751 304.616L139.78 303.256L145.558 277.888ZM177.748 285.22L185.341 286.949L188.205 304.123L188.502 304.19L198.52 289.951L206.113 291.68L200.336 317.048L194.365 315.689L197.914 300.106L197.704 300.058L188.097 314.091L184.282 313.223L181.72 296.326L181.509 296.279L177.941 311.948L171.97 310.588L177.748 285.22ZM216.069 293.948L210.291 319.316L204.16 317.919L209.938 292.552L216.069 293.948ZM217.954 299.615L219.088 294.636L240.53 299.519L239.396 304.499L231.703 302.747L227.06 323.135L221.015 321.758L225.659 301.37L217.954 299.615ZM237.746 325.569L243.524 300.201L261.212 304.23L260.078 309.209L248.521 306.577L247.337 311.779L257.989 314.206L256.852 319.197L246.2 316.771L245.012 321.986L256.569 324.618L255.435 329.598L237.746 325.569ZM259.274 330.472L265.052 305.104L282.74 309.133L281.606 314.112L270.049 311.48L268.865 316.683L279.517 319.109L278.38 324.101L267.728 321.674L266.54 326.889L278.097 329.521L276.963 334.501L259.274 330.472ZM286.58 310.008L294.173 311.737L297.037 328.91L297.334 328.978L307.353 314.739L314.946 316.468L309.168 341.836L303.197 340.476L306.746 324.894L306.536 324.846L296.929 338.879L293.114 338.01L290.552 321.114L290.342 321.066L286.773 336.735L280.802 335.375L286.58 310.008ZM318.479 343.957L311.89 342.456L326.227 319.037L334.39 320.897L337.171 348.214L330.581 346.713L328.945 326.38L328.747 326.335L318.479 343.957ZM319.874 333.773L333.648 336.91L332.587 341.567L318.813 338.43L319.874 333.773ZM367.27 328.385L361.492 353.753L356.29 352.568L349.529 335.628L349.368 335.591L346.034 350.232L339.902 348.836L345.68 323.468L350.957 324.67L357.611 341.56L357.822 341.608L361.151 326.992L367.27 328.385Z" fill="white"/>
<path d="M129.647 258.766L128.348 241.574L134.525 241.107L134.616 242.317L130.053 242.662L130.542 249.135L134.341 248.848L134.431 250.037L130.632 250.324L131.26 258.644L129.647 258.766ZM141.926 258.052C140.78 258.138 139.865 257.987 139.181 257.597C138.51 257.193 138.01 256.604 137.681 255.832C137.366 255.045 137.169 254.135 137.091 253.102L136.552 245.97C136.473 244.923 136.539 244.007 136.75 243.223C136.974 242.423 137.389 241.787 137.993 241.315C138.612 240.841 139.48 240.562 140.598 240.477C141.702 240.394 142.588 240.54 143.257 240.917C143.94 241.292 144.445 241.859 144.773 242.617C145.1 243.361 145.302 244.256 145.381 245.303L145.922 252.456C146 253.489 145.934 254.412 145.725 255.224C145.53 256.022 145.13 256.671 144.528 257.172C143.925 257.673 143.058 257.966 141.926 258.052ZM141.828 256.757C142.578 256.7 143.14 256.508 143.514 256.181C143.886 255.84 144.123 255.395 144.224 254.847C144.338 254.283 144.368 253.641 144.313 252.919L143.725 245.129C143.67 244.408 143.545 243.784 143.349 243.258C143.166 242.731 142.867 242.341 142.449 242.088C142.03 241.821 141.446 241.715 140.696 241.772C139.932 241.83 139.356 242.023 138.968 242.351C138.593 242.664 138.348 243.095 138.233 243.644C138.132 244.193 138.109 244.828 138.164 245.55L138.752 253.339C138.807 254.061 138.926 254.692 139.109 255.233C139.305 255.759 139.613 256.163 140.033 256.444C140.466 256.71 141.064 256.815 141.828 256.757ZM148.986 257.305L147.687 240.113L151.572 239.819C152.647 239.738 153.502 239.851 154.137 240.159C154.786 240.451 155.269 240.92 155.588 241.565C155.906 242.195 156.1 242.964 156.168 243.869C156.216 244.506 156.191 245.113 156.092 245.689C155.993 246.266 155.789 246.765 155.48 247.187C155.17 247.609 154.709 247.907 154.096 248.082L157.391 256.67L155.821 256.789L152.657 248.532L149.961 248.735L150.599 257.183L148.986 257.305ZM149.871 247.547L152.057 247.382C152.779 247.327 153.329 247.165 153.707 246.894C154.085 246.624 154.341 246.249 154.476 245.769C154.61 245.289 154.651 244.695 154.597 243.988C154.517 242.927 154.273 242.148 153.866 241.652C153.459 241.157 152.71 240.95 151.62 241.032L149.392 241.201L149.871 247.547Z" fill="white"/>
<path d="M166.617 266.903L172.332 241.808L182.699 244.169C184.578 244.597 186.115 245.334 187.312 246.38C188.519 247.42 189.345 248.678 189.791 250.154C190.238 251.622 190.266 253.218 189.873 254.942C189.479 256.673 188.754 258.102 187.698 259.228C186.653 260.348 185.351 261.104 183.792 261.496C182.233 261.889 180.494 261.866 178.574 261.429L172.178 259.972L173.266 255.194L178.535 256.394C179.45 256.602 180.25 256.617 180.936 256.438C181.629 256.26 182.2 255.922 182.649 255.423C183.1 254.915 183.412 254.278 183.587 253.51C183.764 252.734 183.757 252.028 183.567 251.392C183.379 250.747 183.01 250.199 182.459 249.747C181.909 249.295 181.181 248.966 180.274 248.76L177.284 248.079L172.682 268.285L166.617 266.903ZM189.126 272.03L194.842 246.935L205.208 249.296C207.087 249.724 208.631 250.432 209.841 251.421C211.061 252.403 211.899 253.608 212.356 255.036C212.815 256.455 212.849 258.022 212.458 259.738C212.062 261.478 211.345 262.87 210.308 263.914C209.273 264.95 207.985 265.627 206.443 265.946C204.903 266.257 203.177 266.195 201.265 265.76L194.71 264.266L195.798 259.488L201.226 260.724C202.141 260.932 202.932 260.988 203.599 260.89C204.275 260.787 204.829 260.526 205.259 260.109C205.691 259.683 205.995 259.082 206.172 258.306C206.349 257.53 206.336 256.852 206.133 256.273C205.931 255.686 205.549 255.195 204.986 254.8C204.424 254.398 203.69 254.093 202.784 253.886L199.794 253.206L195.192 273.411L189.126 272.03ZM205.867 263.779L209.504 276.671L202.887 275.164L199.372 262.299L205.867 263.779ZM211.973 277.234L217.688 252.138L235.186 256.124L234.064 261.05L222.632 258.446L221.46 263.592L231.998 265.992L230.873 270.931L220.335 268.53L219.16 273.689L230.593 276.293L229.471 281.219L211.973 277.234ZM259.693 271.269L253.567 269.874C253.628 269.226 253.59 268.62 253.452 268.056C253.314 267.492 253.078 266.983 252.743 266.528C252.408 266.074 251.977 265.688 251.447 265.37C250.928 265.045 250.326 264.805 249.64 264.649C248.422 264.371 247.305 264.43 246.287 264.826C245.277 265.223 244.407 265.931 243.676 266.951C242.954 267.972 242.41 269.283 242.046 270.884C241.666 272.551 241.585 274.002 241.802 275.237C242.029 276.466 242.51 277.465 243.246 278.234C243.992 278.997 244.961 279.514 246.153 279.786C246.823 279.938 247.451 279.991 248.038 279.944C248.632 279.899 249.175 279.761 249.666 279.529C250.167 279.291 250.607 278.965 250.984 278.553C251.372 278.134 251.687 277.635 251.931 277.054L258.049 278.486C257.69 279.573 257.118 280.594 256.334 281.55C255.557 282.507 254.602 283.325 253.468 284.003C252.335 284.674 251.04 285.117 249.581 285.335C248.13 285.555 246.543 285.468 244.82 285.076C242.549 284.558 240.628 283.597 239.058 282.191C237.498 280.779 236.418 278.994 235.817 276.838C235.217 274.682 235.231 272.228 235.858 269.475C236.486 266.714 237.546 264.494 239.037 262.814C240.528 261.134 242.286 260.001 244.31 259.413C246.334 258.826 248.461 258.786 250.692 259.294C252.211 259.64 253.568 260.173 254.762 260.892C255.957 261.602 256.953 262.473 257.75 263.505C258.547 264.529 259.12 265.695 259.466 267.003C259.813 268.31 259.889 269.733 259.693 271.269ZM271.3 264.349L265.585 289.444L259.519 288.063L265.235 262.968L271.3 264.349ZM296.466 270.081L290.75 295.176L285.604 294.004L278.916 277.246L278.757 277.209L275.458 291.693L269.392 290.311L275.108 265.216L280.328 266.405L286.911 283.114L287.119 283.161L290.413 268.702L296.466 270.081ZM320.988 285.23L314.861 283.834C314.923 283.187 314.885 282.581 314.747 282.017C314.609 281.452 314.373 280.943 314.038 280.489C313.703 280.035 313.271 279.648 312.742 279.33C312.223 279.006 311.621 278.765 310.935 278.609C309.717 278.332 308.6 278.391 307.582 278.786C306.572 279.184 305.702 279.892 304.971 280.911C304.249 281.933 303.705 283.244 303.34 284.845C302.961 286.511 302.88 287.962 303.097 289.198C303.324 290.426 303.805 291.425 304.541 292.194C305.286 292.957 306.256 293.474 307.448 293.746C308.118 293.899 308.746 293.951 309.333 293.905C309.927 293.86 310.47 293.721 310.961 293.489C311.462 293.251 311.901 292.926 312.279 292.513C312.666 292.095 312.982 291.595 313.226 291.015L319.344 292.447C318.985 293.534 318.413 294.555 317.628 295.51C316.852 296.468 315.896 297.286 314.762 297.964C313.63 298.634 312.335 299.078 310.876 299.296C309.425 299.515 307.838 299.429 306.115 299.036C303.844 298.519 301.923 297.557 300.353 296.151C298.793 294.739 297.712 292.955 297.112 290.799C296.512 288.643 296.525 286.189 297.152 283.436C297.781 280.674 298.841 278.454 300.332 276.774C301.823 275.095 303.581 273.961 305.605 273.374C307.629 272.787 309.756 272.747 311.986 273.255C313.506 273.601 314.863 274.133 316.057 274.852C317.252 275.563 318.248 276.434 319.044 277.466C319.842 278.49 320.415 279.656 320.761 280.963C321.108 282.271 321.183 283.693 320.988 285.23ZM324.587 281.667L325.709 276.741L346.919 281.572L345.798 286.498L338.188 284.765L333.594 304.934L327.615 303.572L332.208 283.403L324.587 281.667Z" fill="white"/>
<path d="M142.867 328.432L145.281 317.834L152.298 319.432L151.877 321.28L147.101 320.192L146.526 322.717L150.836 323.699L150.416 325.547L146.105 324.565L145.108 328.943L142.867 328.432ZM153.483 331.008C152.976 330.893 152.544 330.702 152.187 330.435C151.831 330.166 151.577 329.83 151.426 329.429C151.278 329.025 151.264 328.561 151.384 328.037C151.484 327.595 151.65 327.243 151.88 326.98C152.111 326.716 152.386 326.525 152.708 326.406C153.029 326.287 153.377 326.221 153.754 326.209C154.134 326.198 154.525 326.218 154.927 326.269C155.4 326.326 155.783 326.366 156.075 326.389C156.368 326.409 156.589 326.39 156.736 326.333C156.883 326.276 156.976 326.163 157.015 325.994L157.022 325.963C157.096 325.635 157.051 325.358 156.884 325.131C156.722 324.905 156.452 324.75 156.076 324.664C155.68 324.574 155.344 324.59 155.069 324.712C154.795 324.831 154.591 325.013 154.455 325.258L152.454 324.628C152.667 324.169 152.966 323.798 153.35 323.515C153.734 323.229 154.188 323.045 154.711 322.965C155.238 322.882 155.818 322.912 156.453 323.057C156.895 323.158 157.306 323.306 157.686 323.501C158.069 323.697 158.393 323.94 158.658 324.229C158.926 324.518 159.112 324.855 159.217 325.238C159.323 325.618 159.322 326.044 159.214 326.516L157.993 331.878L155.903 331.401L156.154 330.299L156.092 330.285C155.907 330.504 155.687 330.684 155.43 330.825C155.173 330.963 154.883 331.051 154.558 331.09C154.235 331.125 153.876 331.098 153.483 331.008ZM154.461 329.63C154.785 329.704 155.086 329.706 155.363 329.635C155.642 329.56 155.877 329.429 156.068 329.24C156.26 329.051 156.388 328.817 156.451 328.538L156.644 327.694C156.564 327.724 156.46 327.743 156.331 327.754C156.205 327.762 156.065 327.764 155.91 327.761C155.755 327.755 155.601 327.747 155.447 327.738C155.294 327.725 155.155 327.713 155.03 327.703C154.763 327.682 154.523 327.691 154.311 327.729C154.099 327.768 153.924 327.846 153.784 327.963C153.646 328.077 153.553 328.237 153.506 328.444C153.438 328.744 153.494 328.998 153.675 329.207C153.861 329.412 154.123 329.553 154.461 329.63ZM159.704 332.267L161.514 324.318L163.718 324.821L161.908 332.769L159.704 332.267ZM162.855 323.546C162.527 323.471 162.271 323.299 162.086 323.028C161.905 322.754 161.849 322.464 161.919 322.157C161.988 321.854 162.163 321.619 162.444 321.455C162.729 321.287 163.035 321.241 163.363 321.316C163.691 321.39 163.945 321.564 164.126 321.838C164.311 322.109 164.369 322.396 164.3 322.699C164.23 323.006 164.052 323.244 163.767 323.411C163.487 323.576 163.183 323.621 162.855 323.546ZM169.712 326.186L169.335 327.842L164.548 326.751L164.926 325.095L169.712 326.186ZM166.446 323.439L168.65 323.941L166.963 331.351C166.916 331.555 166.911 331.72 166.947 331.848C166.984 331.973 167.053 332.07 167.153 332.14C167.257 332.211 167.383 332.263 167.531 332.297C167.635 332.321 167.74 332.336 167.847 332.342C167.956 332.345 168.039 332.347 168.096 332.35L168.069 334.069C167.951 334.078 167.787 334.083 167.576 334.082C167.365 334.085 167.115 334.059 166.827 334.004C166.291 333.903 165.841 333.727 165.478 333.473C165.118 333.221 164.867 332.899 164.724 332.507C164.581 332.115 164.57 331.659 164.692 331.139L166.446 323.439ZM172.76 330.407L171.713 335.002L169.509 334.5L171.923 323.902L174.065 324.39L173.142 328.442L173.235 328.463C173.521 328.035 173.895 327.733 174.356 327.559C174.817 327.381 175.35 327.361 175.953 327.498C176.505 327.624 176.959 327.854 177.315 328.189C177.674 328.522 177.917 328.938 178.043 329.438C178.172 329.936 178.165 330.495 178.02 331.115L176.867 336.176L174.663 335.674L175.726 331.006C175.841 330.517 175.804 330.108 175.614 329.778C175.428 329.449 175.11 329.233 174.662 329.131C174.362 329.063 174.081 329.066 173.821 329.141C173.564 329.217 173.343 329.362 173.156 329.577C172.973 329.79 172.841 330.066 172.76 330.407ZM181.328 335.668L181.142 336.224C180.993 336.67 180.803 337.104 180.573 337.526C180.345 337.954 180.12 338.336 179.898 338.674C179.679 339.012 179.505 339.277 179.374 339.469L177.946 339.144C178.044 338.952 178.179 338.683 178.352 338.338C178.524 337.996 178.702 337.608 178.884 337.174C179.066 336.741 179.221 336.291 179.349 335.827L179.507 335.253L181.328 335.668ZM185.93 338.24L188.344 327.642L195.361 329.24L194.94 331.088L190.164 330L189.588 332.525L193.899 333.507L193.478 335.355L189.168 334.373L188.171 338.751L185.93 338.24ZM196.546 340.816C196.038 340.701 195.606 340.51 195.25 340.243C194.894 339.974 194.64 339.638 194.488 339.237C194.341 338.833 194.327 338.369 194.446 337.845C194.547 337.403 194.712 337.051 194.943 336.788C195.173 336.524 195.449 336.333 195.77 336.214C196.091 336.095 196.44 336.029 196.817 336.017C197.197 336.005 197.588 336.026 197.99 336.077C198.463 336.134 198.846 336.174 199.138 336.197C199.431 336.217 199.651 336.198 199.799 336.141C199.946 336.084 200.039 335.971 200.077 335.802L200.084 335.77C200.159 335.443 200.113 335.166 199.947 334.939C199.784 334.713 199.515 334.558 199.139 334.472C198.742 334.382 198.407 334.398 198.132 334.52C197.858 334.639 197.653 334.821 197.518 335.066L195.516 334.436C195.73 333.977 196.029 333.606 196.412 333.323C196.797 333.037 197.25 332.853 197.773 332.773C198.3 332.69 198.881 332.72 199.516 332.865C199.957 332.965 200.368 333.113 200.748 333.309C201.132 333.505 201.456 333.748 201.72 334.037C201.988 334.326 202.175 334.663 202.28 335.046C202.386 335.425 202.385 335.852 202.277 336.324L201.056 341.685L198.965 341.209L199.216 340.107L199.154 340.093C198.97 340.312 198.749 340.492 198.492 340.633C198.236 340.771 197.946 340.859 197.621 340.898C197.297 340.933 196.939 340.906 196.546 340.816ZM197.523 339.438C197.848 339.512 198.149 339.514 198.426 339.443C198.704 339.368 198.939 339.237 199.131 339.048C199.323 338.859 199.45 338.625 199.514 338.346L199.706 337.502C199.627 337.532 199.523 337.551 199.393 337.562C199.268 337.57 199.128 337.572 198.972 337.569C198.818 337.563 198.664 337.555 198.51 337.546C198.357 337.533 198.218 337.521 198.093 337.511C197.826 337.49 197.586 337.499 197.374 337.537C197.162 337.576 196.986 337.654 196.847 337.771C196.709 337.885 196.616 338.045 196.569 338.252C196.5 338.552 196.557 338.806 196.738 339.015C196.924 339.22 197.185 339.361 197.523 339.438ZM202.766 342.075L204.577 334.126L206.678 334.605L206.358 336.007L206.451 336.029C206.723 335.601 207.083 335.296 207.53 335.115C207.978 334.934 208.471 334.905 209.009 335.027C209.554 335.151 209.987 335.393 210.308 335.753C210.63 336.109 210.802 336.533 210.824 337.024L210.907 337.043C211.173 336.625 211.549 336.328 212.035 336.152C212.526 335.973 213.063 335.95 213.646 336.083C214.388 336.252 214.936 336.626 215.29 337.203C215.649 337.779 215.731 338.498 215.534 339.36L214.317 344.706L212.117 344.205L213.236 339.294C213.336 338.852 213.294 338.494 213.11 338.22C212.926 337.946 212.658 337.769 212.306 337.689C211.906 337.597 211.564 337.654 211.282 337.858C211 338.059 210.812 338.366 210.718 338.78L209.613 343.634L207.475 343.148L208.604 338.19C208.693 337.8 208.652 337.464 208.48 337.182C208.312 336.901 208.047 336.719 207.685 336.636C207.44 336.58 207.205 336.592 206.98 336.671C206.759 336.748 206.567 336.884 206.403 337.079C206.239 337.27 206.124 337.513 206.057 337.806L204.971 342.577L202.766 342.075ZM216.058 345.102L217.868 337.154L220.073 337.656L218.262 345.604L216.058 345.102ZM219.209 336.381C218.881 336.307 218.625 336.134 218.44 335.863C218.259 335.59 218.203 335.299 218.273 334.992C218.343 334.689 218.517 334.455 218.798 334.29C219.083 334.123 219.389 334.076 219.717 334.151C220.045 334.226 220.299 334.4 220.48 334.673C220.665 334.944 220.723 335.231 220.654 335.535C220.584 335.842 220.407 336.079 220.122 336.246C219.841 336.411 219.537 336.456 219.209 336.381ZM224.647 335.911L222.233 346.509L220.028 346.007L222.442 335.408L224.647 335.911ZM224.681 350.202C224.401 350.138 224.144 350.056 223.91 349.955C223.677 349.859 223.49 349.76 223.346 349.658L224.217 348.126C224.458 348.264 224.681 348.36 224.887 348.414C225.095 348.469 225.288 348.462 225.463 348.393C225.642 348.325 225.808 348.178 225.961 347.951L226.167 347.644L225.178 338.819L227.496 339.347L227.812 345.559L227.895 345.577L230.886 340.119L233.219 340.65L228.124 348.754C227.878 349.148 227.592 349.475 227.264 349.734C226.939 349.997 226.564 350.171 226.138 350.256C225.712 350.344 225.226 350.326 224.681 350.202ZM234.765 347.839L234.579 348.395C234.43 348.84 234.24 349.274 234.01 349.697C233.782 350.124 233.557 350.507 233.335 350.844C233.116 351.183 232.942 351.448 232.811 351.64L231.383 351.314C231.481 351.123 231.616 350.854 231.789 350.509C231.961 350.167 232.139 349.779 232.321 349.345C232.503 348.911 232.658 348.462 232.786 347.998L232.944 347.424L234.765 347.839ZM239.367 350.411L241.781 339.813L248.798 341.411L248.377 343.259L243.601 342.171L243.025 344.696L247.336 345.678L246.915 347.525L242.605 346.544L241.607 350.921L239.367 350.411ZM247.722 352.314L249.532 344.365L251.669 344.852L251.353 346.239L251.436 346.258C251.693 345.798 252.021 345.48 252.42 345.306C252.82 345.129 253.242 345.091 253.687 345.192C253.798 345.217 253.915 345.251 254.04 345.294C254.164 345.337 254.272 345.382 254.363 345.428L253.918 347.384C253.821 347.329 253.684 347.269 253.507 347.203C253.33 347.137 253.165 347.087 253.013 347.053C252.689 346.979 252.383 346.983 252.096 347.067C251.812 347.147 251.568 347.295 251.363 347.51C251.162 347.725 251.024 347.995 250.95 348.319L249.926 352.816L247.722 352.314ZM256.901 354.568C256.084 354.382 255.418 354.056 254.903 353.59C254.393 353.122 254.049 352.547 253.87 351.864C253.693 351.177 253.699 350.415 253.89 349.577C254.077 348.759 254.399 348.078 254.857 347.532C255.315 346.987 255.871 346.608 256.526 346.394C257.184 346.181 257.903 346.163 258.683 346.341C259.207 346.46 259.676 346.656 260.089 346.928C260.507 347.197 260.847 347.538 261.109 347.949C261.374 348.362 261.544 348.843 261.618 349.393C261.693 349.94 261.654 350.552 261.5 351.228L261.362 351.834L254.65 350.305L254.961 348.939L259.598 349.995C259.67 349.677 259.665 349.38 259.583 349.104C259.501 348.828 259.353 348.593 259.139 348.399C258.93 348.202 258.665 348.068 258.344 347.995C258.009 347.918 257.695 347.928 257.401 348.025C257.111 348.118 256.864 348.278 256.66 348.504C256.457 348.726 256.318 348.994 256.243 349.307L255.948 350.606C255.858 350.999 255.853 351.355 255.933 351.675C256.016 351.995 256.174 352.263 256.408 352.48C256.642 352.696 256.943 352.847 257.312 352.931C257.557 352.987 257.789 353.003 258.009 352.98C258.228 352.958 258.426 352.894 258.602 352.789C258.778 352.684 258.927 352.54 259.049 352.357L261.057 352.956C260.842 353.423 260.532 353.802 260.128 354.095C259.728 354.385 259.253 354.574 258.703 354.663C258.157 354.749 257.557 354.717 256.901 354.568ZM265.611 356.552C264.793 356.366 264.127 356.04 263.612 355.574C263.102 355.106 262.758 354.53 262.58 353.847C262.402 353.161 262.409 352.399 262.6 351.56C262.786 350.743 263.108 350.061 263.566 349.516C264.024 348.971 264.581 348.591 265.235 348.377C265.893 348.164 266.612 348.147 267.392 348.324C267.916 348.444 268.385 348.639 268.799 348.911C269.216 349.181 269.556 349.521 269.818 349.933C270.083 350.345 270.253 350.827 270.327 351.377C270.402 351.924 270.363 352.536 270.209 353.212L270.071 353.817L263.359 352.288L263.67 350.922L268.307 351.978C268.379 351.661 268.374 351.364 268.292 351.088C268.21 350.811 268.062 350.576 267.849 350.382C267.639 350.186 267.374 350.051 267.053 349.978C266.719 349.902 266.404 349.912 266.11 350.008C265.82 350.102 265.574 350.262 265.37 350.487C265.167 350.71 265.028 350.977 264.953 351.291L264.657 352.59C264.567 352.983 264.562 353.339 264.642 353.658C264.725 353.979 264.884 354.247 265.117 354.463C265.351 354.68 265.653 354.83 266.022 354.914C266.267 354.97 266.499 354.987 266.718 354.964C266.937 354.941 267.135 354.878 267.311 354.773C267.488 354.668 267.637 354.524 267.758 354.341L269.766 354.94C269.551 355.406 269.242 355.786 268.838 356.078C268.438 356.368 267.963 356.558 267.413 356.646C266.867 356.733 266.266 356.701 265.611 356.552ZM273.632 358.352C273.029 358.214 272.517 357.934 272.098 357.512C271.683 357.087 271.402 356.539 271.254 355.866C271.11 355.191 271.139 354.411 271.341 353.524C271.548 352.613 271.867 351.889 272.298 351.352C272.73 350.812 273.223 350.447 273.778 350.258C274.337 350.066 274.908 350.036 275.491 350.169C275.936 350.27 276.289 350.431 276.551 350.65C276.818 350.867 277.017 351.108 277.149 351.374C277.285 351.637 277.377 351.887 277.424 352.123L277.492 352.138L278.399 348.153L280.599 348.654L278.185 359.252L276.011 358.757L276.301 357.484L276.208 357.463C276.054 357.66 275.858 357.846 275.619 358.02C275.384 358.192 275.1 358.314 274.767 358.387C274.439 358.461 274.06 358.449 273.632 358.352ZM274.731 356.756C275.086 356.837 275.408 356.809 275.697 356.672C275.99 356.532 276.242 356.301 276.454 355.979C276.668 355.657 276.83 355.26 276.937 354.788C277.045 354.315 277.073 353.89 277.021 353.511C276.969 353.133 276.841 352.821 276.636 352.574C276.43 352.328 276.15 352.164 275.795 352.083C275.433 352.001 275.105 352.03 274.812 352.17C274.519 352.31 274.268 352.54 274.061 352.859C273.854 353.178 273.699 353.567 273.594 354.026C273.489 354.489 273.46 354.912 273.506 355.296C273.557 355.678 273.682 355.997 273.882 356.253C274.085 356.506 274.368 356.674 274.731 356.756ZM283.553 360.638C282.749 360.455 282.093 360.126 281.584 359.651C281.08 359.173 280.739 358.591 280.561 357.905C280.385 357.215 280.389 356.463 280.574 355.649C280.761 354.828 281.084 354.146 281.541 353.604C281.999 353.059 282.558 352.682 283.219 352.473C283.884 352.262 284.619 352.248 285.423 352.431C286.226 352.614 286.88 352.944 287.385 353.422C287.894 353.897 288.236 354.48 288.413 355.17C288.591 355.856 288.586 356.61 288.399 357.431C288.213 358.245 287.892 358.925 287.434 359.47C286.976 360.012 286.415 360.388 285.75 360.6C285.089 360.809 284.357 360.821 283.553 360.638ZM283.953 358.933C284.318 359.016 284.647 358.982 284.939 358.831C285.232 358.676 285.482 358.432 285.689 358.098C285.899 357.765 286.056 357.367 286.162 356.905C286.267 356.443 286.297 356.016 286.252 355.625C286.21 355.234 286.091 354.906 285.894 354.639C285.697 354.373 285.415 354.198 285.05 354.115C284.681 354.031 284.346 354.066 284.046 354.219C283.75 354.373 283.497 354.616 283.287 354.949C283.08 355.283 282.924 355.681 282.819 356.144C282.713 356.606 282.682 357.032 282.723 357.423C282.768 357.814 282.891 358.143 283.092 358.41C283.296 358.675 283.583 358.849 283.953 358.933ZM288.934 361.701L290.745 353.752L292.846 354.231L292.526 355.633L292.619 355.654C292.891 355.226 293.251 354.922 293.698 354.74C294.146 354.559 294.639 354.53 295.177 354.653C295.722 354.777 296.155 355.019 296.476 355.379C296.798 355.735 296.97 356.159 296.992 356.65L297.075 356.669C297.341 356.25 297.717 355.953 298.203 355.777C298.694 355.599 299.231 355.576 299.814 355.709C300.556 355.878 301.104 356.251 301.458 356.829C301.817 357.404 301.898 358.123 301.702 358.986L300.484 364.331L298.285 363.83L299.404 358.919C299.504 358.478 299.462 358.12 299.278 357.846C299.094 357.571 298.826 357.394 298.474 357.314C298.074 357.223 297.732 357.28 297.45 357.484C297.168 357.685 296.98 357.992 296.886 358.406L295.781 363.26L293.643 362.773L294.772 357.816C294.861 357.426 294.82 357.09 294.648 356.808C294.48 356.526 294.215 356.344 293.853 356.262C293.608 356.206 293.373 356.218 293.148 356.297C292.927 356.374 292.735 356.51 292.571 356.704C292.407 356.896 292.292 357.138 292.225 357.431L291.139 362.203L288.934 361.701Z" fill="white"/>
</g>
</g>
</g>
</g>
<defs>
<filter id="filter0_d_857_7594" x="15.649" y="32.0327" width="457.563" height="378.143" filterUnits="userSpaceOnUse" color-interpolation-filters="sRGB">
<feFlood flood-opacity="0" result="BackgroundImageFix"/>
<feColorMatrix in="SourceAlpha" type="matrix" values="0 0 0 0 0 0 0 0 0 0 0 0 0 0 0 0 0 0 127 0" result="hardAlpha"/>
<feOffset dy="5.74749"/>
<feGaussianBlur stdDeviation="2.87374"/>
<feComposite in2="hardAlpha" operator="out"/>
<feColorMatrix type="matrix" values="0 0 0 0 0 0 0 0 0 0 0 0 0 0 0 0 0 0 0.25 0"/>
<feBlend mode="normal" in2="BackgroundImageFix" result="effect1_dropShadow_857_7594"/>
<feBlend mode="normal" in="SourceGraphic" in2="effect1_dropShadow_857_7594" result="shape"/>
</filter>
<clipPath id="clip0_857_7594">
<rect width="403.259" height="403.259" fill="white" transform="translate(0.529297 0.890015)"/>
</clipPath>
<clipPath id="clip1_857_7594">
<rect width="425.314" height="322.19" fill="white" transform="translate(72.0801 11.3916) rotate(12.8308)"/>
</clipPath>
<clipPath id="clip2_857_7594">
<path d="M80.6548 51.4109C83.0923 40.7086 93.7443 34.0087 104.447 36.4463L448.087 114.714C458.789 117.151 465.489 127.803 463.052 138.506L434.069 265.756L51.6723 178.661L80.6548 51.4109Z" fill="white"/>
</clipPath>
<clipPath id="clip3_857_7594">
<path d="M408.208 379.303C405.771 390.005 395.119 396.705 384.417 394.267L40.7763 316C30.074 313.562 23.3741 302.91 25.8116 292.208L47.1439 198.547L429.541 285.641L408.208 379.303Z" fill="white"/>
</clipPath>
</defs>
</svg>
